<?xml version="1.0" standalone="no"?>
<!DOCTYPE svg PUBLIC "-//W3C//DTD SVG 20010904//EN"
 "http://www.w3.org/TR/2001/REC-SVG-20010904/DTD/svg10.dtd">
<svg version="1.0" xmlns="http://www.w3.org/2000/svg"
 width="512.000000pt" height="512.000000pt" viewBox="0 0 512.000000 512.000000"
 preserveAspectRatio="xMidYMid meet">

<g transform="translate(0.000000,512.000000) scale(0.100000,-0.100000)"
fill="#000000" stroke="none">
<path d="M2370 5114 c-19 -2 -78 -9 -130 -15 -791 -90 -1522 -586 -1924 -1305
-146 -262 -252 -588 -297 -914 -18 -125 -18 -515 0 -640 80 -582 327 -1083
732 -1489 602 -602 1441 -861 2284 -706 1026 190 1851 1014 2039 2039 156 845
-103 1682 -705 2285 -399 398 -879 639 -1449 726 -100 15 -472 28 -550 19z
m540 -169 c58 -9 166 -31 240 -49 848 -211 1531 -892 1745 -1741 55 -219 69
-342 69 -595 0 -253 -14 -376 -69 -595 -186 -739 -733 -1361 -1445 -1645 -103
-41 -298 -101 -372 -114 l-38 -7 0 820 0 819 194 4 c275 4 265 -5 355 352 33
135 61 264 61 286 0 47 -17 85 -55 120 l-27 25 -320 3 c-290 3 -322 1 -339
-14 -27 -24 -25 -85 2 -110 19 -18 42 -19 305 -22 212 -2 284 -6 284 -15 0 -7
-27 -115 -58 -242 l-58 -230 -232 -5 c-171 -4 -234 -8 -244 -18 -10 -10 -14
-192 -18 -905 l-5 -891 -40 -10 c-22 -5 -146 -9 -275 -10 -264 -1 -380 13
-605 69 -846 213 -1527 894 -1740 1740 -55 219 -69 342 -69 595 0 253 14 376
69 595 192 760 764 1395 1507 1669 174 64 433 121 638 140 93 8 439 -4 540
-19z"/>
<path d="M2910 4149 c-374 -48 -697 -338 -796 -714 -26 -97 -27 -112 -31 -452
l-5 -353 -266 0 c-258 0 -267 -1 -298 -22 -67 -46 -69 -53 -72 -356 -3 -262
-2 -275 18 -317 13 -27 36 -53 58 -67 36 -22 46 -23 300 -26 l262 -3 0 -678
c0 -448 4 -688 10 -708 10 -28 45 -53 74 -53 7 0 25 9 40 21 l26 20 0 753 c0
634 -2 755 -14 772 -14 18 -32 19 -318 24 l-303 5 -3 242 -2 242 299 3 c272 3
301 5 319 21 19 18 20 33 24 415 4 368 6 403 27 477 79 292 297 512 585 588
74 20 105 22 381 22 l300 0 3 -242 2 -241 -197 -4 c-226 -5 -263 -14 -337 -79
-25 -23 -58 -66 -75 -101 l-31 -61 0 -214 c0 -200 1 -214 20 -233 27 -27 81
-26 106 1 17 19 20 43 24 228 5 196 6 208 28 239 44 61 64 66 299 72 232 5
237 7 287 74 20 26 21 43 24 304 3 272 2 278 -20 322 -17 33 -35 51 -68 68
-43 21 -52 22 -330 21 -157 -1 -314 -5 -350 -10z"/>
</g>
</svg>
