<?xml version="1.0" standalone="no"?>
<!DOCTYPE svg PUBLIC "-//W3C//DTD SVG 20010904//EN"
 "http://www.w3.org/TR/2001/REC-SVG-20010904/DTD/svg10.dtd">
<svg version="1.0" xmlns="http://www.w3.org/2000/svg"
 width="950.000000pt" height="938.000000pt" viewBox="0 0 950.000000 938.000000"
 preserveAspectRatio="xMidYMid meet">

<g transform="translate(0.000000,938.000000) scale(0.100000,-0.100000)"
fill="#000000" stroke="none">
<path d="M5860 7451 c0 -17 18 -21 24 -6 3 9 0 15 -9 15 -8 0 -15 -4 -15 -9z"/>
<path d="M5520 7441 c0 -5 21 -55 46 -112 25 -57 50 -115 55 -128 8 -19 12
-21 24 -11 10 8 11 17 5 28 -24 42 -82 189 -82 210 0 16 -6 22 -24 22 -13 0
-24 -4 -24 -9z"/>
<path d="M5708 7323 c30 -71 56 -130 58 -132 2 -2 11 2 19 9 9 7 12 16 7 19
-12 7 -92 197 -92 217 0 8 -10 14 -24 14 -23 0 -23 -2 32 -127z"/>
<path d="M6156 7427 c5 -15 -21 -221 -31 -237 -4 -7 25 -24 30 -18 7 9 40 258
34 258 -4 0 -15 3 -23 6 -12 4 -15 2 -10 -9z"/>
<path d="M6280 7419 c3 -2 17 -15 32 -28 26 -23 27 -23 21 -2 -3 11 -9 21 -13
21 -5 0 -17 3 -27 7 -10 3 -16 4 -13 2z"/>
<path d="M6576 7250 c-16 -55 -35 -111 -41 -124 -12 -22 -11 -25 10 -30 13 -3
31 -8 42 -12 14 -4 13 -2 -3 8 l-21 13 34 108 c32 99 36 137 16 137 -5 0 -21
-45 -37 -100z"/>
<path d="M4960 7326 c0 -2 7 -9 15 -16 12 -10 15 -10 15 4 0 9 -7 16 -15 16
-8 0 -15 -2 -15 -4z"/>
<path d="M6728 7274 c2 -19 -1 -41 -8 -49 -19 -22 4 -18 25 5 19 21 15 64 -8
73 -9 3 -12 -4 -9 -29z"/>
<path d="M6275 7291 c-3 -5 -1 -12 5 -16 5 -3 10 1 10 9 0 18 -6 21 -15 7z"/>
<path d="M4776 7262 c-4 -8 273 -177 279 -170 8 8 -8 48 -19 48 -6 0 -60 29
-119 65 -105 63 -131 73 -141 57z"/>
<path d="M6703 7193 c21 -24 22 -59 2 -96 -9 -19 -10 -25 -2 -21 64 37 63 93
-3 129 -11 6 -10 3 3 -12z"/>
<path d="M6293 7180 c-20 -16 -21 -30 -2 -30 9 0 33 40 27 45 -2 2 -13 -5 -25
-15z"/>
<path d="M4460 7120 c-12 -8 -9 -10 11 -10 15 0 32 -7 39 -15 18 -22 30 -18
30 10 0 22 -4 25 -32 25 -18 0 -40 -5 -48 -10z"/>
<path d="M5450 7065 c0 -3 7 -21 15 -41 8 -19 15 -36 15 -39 0 -3 8 -24 16
-47 10 -27 19 -102 24 -198 10 -201 27 -254 112 -368 22 -30 38 -56 35 -58
-12 -12 -43 16 -102 91 -119 152 -246 245 -357 260 -50 7 -34 -8 22 -20 97
-21 207 -104 318 -243 59 -74 84 -98 105 -100 35 -4 37 25 3 65 -41 49 -84
126 -100 181 -9 30 -18 118 -22 199 -6 118 -12 159 -34 224 -14 43 -25 79 -23
79 23 0 152 -128 220 -218 89 -119 153 -294 120 -330 -8 -9 -21 -32 -29 -50
-8 -20 -27 -39 -48 -50 -32 -15 -35 -21 -38 -65 -2 -27 1 -46 6 -43 5 3 7 18
4 34 -4 32 3 42 56 72 19 12 32 28 32 40 0 11 9 29 20 40 16 16 24 18 46 10
36 -14 44 -4 10 11 -15 7 -29 23 -32 38 -29 136 -81 240 -181 362 -65 79 -169
169 -195 169 -10 0 -18 -2 -18 -5z"/>
<path d="M4860 7042 c0 -14 6 -22 16 -22 14 0 15 3 3 18 -7 9 -15 19 -16 21
-2 2 -3 -5 -3 -17z"/>
<path d="M7255 6998 c-21 -35 -53 -84 -71 -110 l-33 -47 37 -21 c32 -19 35
-20 20 -3 -16 18 -14 23 48 122 58 93 69 121 45 121 -5 0 -25 -28 -46 -62z"/>
<path d="M4367 7043 c-27 -46 -10 -119 36 -162 34 -31 103 -39 145 -17 45 23
48 37 5 20 -32 -13 -44 -13 -77 -2 -54 18 -100 77 -101 128 0 42 -1 45 -8 33z"/>
<path d="M4564 7005 c-10 -8 -13 -14 -6 -13 9 2 41 -42 58 -80 1 -1 8 0 16 3
13 5 11 14 -11 55 -14 28 -29 50 -32 50 -3 0 -14 -7 -25 -15z"/>
<path d="M7394 6990 c35 -54 3 -164 -58 -201 -38 -23 -17 -25 30 -3 76 36 98
133 43 194 -17 20 -24 24 -15 10z"/>
<path d="M4078 6879 c-16 -9 -9 -21 57 -109 41 -54 75 -105 75 -112 0 -8 5 -7
16 4 14 14 10 24 -54 109 -38 52 -71 99 -73 106 -3 8 -9 9 -21 2z"/>
<path d="M7651 6726 c-90 -105 -123 -136 -134 -129 -7 3 -3 -4 8 -16 l19 -22
46 48 c96 103 131 150 117 160 -8 7 -24 -4 -56 -41z"/>
<path d="M7798 6659 c4 -27 6 -29 14 -14 7 12 6 21 -4 32 -13 12 -14 10 -10
-18z"/>
<path d="M3833 6665 c-39 -17 -42 -24 -9 -18 13 3 33 0 43 -6 18 -9 20 -7 15
14 -5 29 -6 29 -49 10z"/>
<path d="M4905 6670 l-30 -8 30 -1 c48 -2 94 -18 131 -46 18 -14 35 -26 36
-26 2 0 48 -44 104 -97 88 -85 224 -193 224 -178 0 3 -26 26 -57 51 -32 26
-107 93 -167 148 -59 56 -123 111 -142 122 -40 23 -42 32 -11 38 12 2 -3 4
-33 4 -30 1 -68 -3 -85 -7z"/>
<path d="M5061 6676 c12 -10 99 -16 99 -7 0 7 -22 11 -52 11 -28 0 -49 -2 -47
-4z"/>
<path d="M7697 6589 c6 -22 19 -25 26 -5 3 8 -2 16 -12 19 -14 3 -17 0 -14
-14z"/>
<path d="M3750 6567 c0 -8 8 -25 18 -37 23 -29 80 -29 126 0 45 27 86 23 103
-10 l13 -25 0 26 c0 53 -60 75 -120 44 -68 -35 -77 -36 -110 -9 -22 19 -30 22
-30 11z"/>
<path d="M7638 6479 c15 -14 20 -14 40 -1 12 8 22 15 22 16 0 0 -18 1 -39 1
-36 0 -38 -1 -23 -16z"/>
<path d="M5920 6470 c8 -5 30 -10 48 -10 27 0 37 -7 65 -47 17 -26 44 -60 58
-76 25 -29 25 -29 58 -12 90 46 169 -44 194 -223 7 -47 16 -82 20 -76 8 14 -9
129 -27 181 -25 70 -46 103 -79 123 -35 22 -97 26 -114 9 -18 -18 -37 -5 -77
55 -46 69 -70 86 -121 86 -29 0 -36 -3 -25 -10z"/>
<path d="M7982 6427 c-13 -23 -44 -79 -68 -124 -39 -71 -43 -83 -27 -83 12 0
36 32 76 105 36 64 65 105 74 105 14 0 14 3 -2 20 -10 11 -21 20 -24 20 -3 0
-16 -19 -29 -43z"/>
<path d="M3964 6439 c-4 -7 -24 -9 -49 -7 -38 5 -42 3 -38 -13 3 -11 13 -19
22 -19 16 0 81 36 81 45 0 9 -9 5 -16 -6z"/>
<path d="M3532 6358 c-7 -7 -12 -16 -12 -22 0 -6 5 -5 12 2 7 7 21 12 33 12
16 0 17 2 5 10 -19 13 -24 12 -38 -2z"/>
<path d="M5475 6266 c63 -58 61 -58 91 -9 11 17 14 16 42 -10 16 -16 32 -25
35 -20 7 12 -81 83 -102 82 -9 0 -25 -4 -36 -8 -12 -5 -34 -2 -55 6 -33 13
-31 10 25 -41z m82 18 c-3 -3 -12 -4 -19 -1 -8 3 -5 6 6 6 11 1 17 -2 13 -5z
m-17 -29 c0 -8 -4 -15 -9 -15 -5 0 -14 7 -21 15 -10 13 -9 15 9 15 12 0 21 -6
21 -15z"/>
<path d="M8135 6290 c-3 -5 3 -10 15 -10 12 0 18 5 15 10 -3 6 -10 10 -15 10
-5 0 -12 -4 -15 -10z"/>
<path d="M3618 6265 c-5 -22 -3 -24 11 -13 9 7 17 13 19 14 1 1 -4 6 -12 13
-11 9 -15 7 -18 -14z"/>
<path d="M5716 6281 c-4 -5 -2 -12 4 -16 11 -7 14 -55 3 -55 -3 0 -15 8 -25
17 -14 13 -21 14 -30 5 -9 -9 -8 -12 4 -12 29 0 69 -62 151 -228 54 -111 83
-159 88 -150 6 9 9 6 9 -10 0 -13 4 -20 10 -17 14 9 12 31 -3 47 -8 7 -16 41
-19 74 -7 77 -35 130 -109 210 -45 49 -59 70 -54 84 7 22 -19 68 -29 51z m127
-211 c28 -38 61 -140 54 -168 -2 -10 -28 34 -65 112 -34 70 -62 130 -62 132 0
9 47 -41 73 -76z"/>
<path d="M5411 6269 c-13 -5 -55 -14 -95 -20 -136 -21 -323 -94 -395 -154 -44
-38 -39 -47 20 -39 l52 7 -52 -65 c-28 -36 -51 -70 -51 -76 0 -6 -4 -12 -9
-14 -17 -6 -121 -177 -179 -295 -44 -89 -63 -118 -71 -110 -8 8 -11 7 -11 -4
0 -18 -41 -59 -58 -59 -7 0 -12 -4 -12 -10 0 -5 6 -10 14 -10 29 0 38 -26 25
-72 -7 -24 -16 -47 -21 -52 -11 -13 -9 -96 3 -121 6 -14 7 -3 3 34 l-6 54 31
-23 c43 -30 49 -20 10 19 -25 26 -29 34 -19 46 17 21 43 19 74 -6 15 -12 29
-19 32 -16 8 8 -61 57 -79 57 -11 0 -14 5 -10 16 4 12 8 13 13 3 6 -8 13 -3
23 18 9 16 28 35 44 42 l28 13 -33 13 c-17 8 -32 17 -32 20 0 3 29 66 65 139
65 132 156 278 247 395 56 71 58 71 184 40 l85 -22 -41 -42 c-53 -54 -84 -146
-71 -206 14 -60 23 -61 16 -2 -14 99 38 196 134 250 74 42 81 51 81 101 l0 44
35 -6 35 -7 0 42 c0 24 7 50 16 60 19 21 7 30 -25 18z m-5 -35 c-3 -9 -6 -26
-6 -39 0 -20 -5 -23 -27 -22 -25 2 -28 -2 -33 -38 -4 -31 -12 -44 -39 -62 -53
-36 -77 -38 -177 -13 l-94 23 21 28 c27 38 11 38 -21 0 -18 -21 -37 -31 -70
-36 l-45 -6 25 20 c79 65 294 138 464 160 4 1 5 -6 2 -15z"/>
<path d="M3452 6248 c-7 -7 15 -29 76 -75 48 -36 94 -74 103 -84 15 -17 18
-17 30 -3 14 17 20 11 -91 95 -107 81 -105 80 -118 67z"/>
<path d="M3728 6219 c4 -39 5 -40 19 -19 14 20 14 24 -4 41 -18 19 -18 18 -15
-22z"/>
<path d="M6650 6203 c-52 -19 -130 -57 -130 -64 0 -5 -6 -9 -14 -9 -24 0 -67
-61 -114 -163 -25 -53 -47 -96 -48 -94 -2 2 0 19 5 38 5 19 12 50 15 69 10 56
-11 21 -23 -39 -12 -59 -35 -102 -88 -168 -50 -62 -18 -53 43 13 35 37 70 92
107 168 64 131 111 180 210 217 61 23 129 31 143 16 4 -4 1 -19 -6 -33 -11
-20 -12 -29 -2 -44 7 -11 12 -38 12 -59 0 -22 9 -55 20 -74 13 -21 19 -49 18
-76 -1 -33 4 -47 22 -64 l23 -22 -17 29 c-12 19 -16 38 -12 58 4 20 -2 44 -20
79 -18 37 -23 59 -19 81 5 21 2 35 -10 48 -15 17 -16 21 -1 41 25 36 5 59 -52
58 -26 0 -54 -3 -62 -6z"/>
<path d="M8310 6061 c0 -10 -192 -121 -209 -121 -9 0 -9 -5 -1 -20 11 -21 8
-22 130 50 8 5 36 21 62 36 40 23 46 30 37 45 -10 20 -19 25 -19 10z"/>
<path d="M3288 5954 c-15 -8 -33 -24 -39 -36 l-12 -21 28 21 c15 12 42 22 59
22 43 -1 108 -32 134 -65 27 -34 29 -11 2 32 -35 58 -113 80 -172 47z"/>
<path d="M8377 5918 c-6 -41 -4 -43 16 -21 13 15 13 21 2 36 -11 16 -13 15
-18 -15z"/>
<path d="M8264 5879 c0 -21 5 -23 23 -11 9 6 8 11 -5 19 -15 9 -18 7 -18 -8z"/>
<path d="M6021 5856 c-7 -8 -11 -26 -9 -40 2 -19 -7 -34 -35 -60 -39 -35 -48
-74 -20 -84 19 -5 40 45 25 60 -8 8 -5 15 15 25 32 17 33 17 33 -4 0 -10 4
-24 9 -31 5 -8 8 17 7 61 -1 81 -6 96 -25 73z m-54 -158 c-3 -8 -6 -5 -6 6 -1
11 2 17 5 13 3 -3 4 -12 1 -19z"/>
<path d="M7292 5834 c-15 -33 -49 -44 -157 -54 l-90 -8 98 2 c53 0 97 -1 97
-2 0 -18 -109 -81 -175 -102 -44 -14 -68 -30 -44 -30 35 0 148 53 202 95 54
43 57 44 43 17 -18 -35 -137 -148 -165 -157 -18 -6 -30 -25 -16 -25 10 0 59
33 106 72 57 46 96 102 114 162 15 49 5 71 -13 30z"/>
<path d="M3197 5827 c-3 -9 33 -33 103 -70 60 -32 110 -62 112 -68 2 -6 14 9
27 33 23 41 23 42 3 24 -21 -18 -22 -18 -126 38 -58 31 -107 56 -110 56 -2 0
-6 -6 -9 -13z"/>
<path d="M5781 5816 c-9 -11 -6 -18 14 -34 31 -25 36 -82 6 -82 -10 0 -30 9
-45 21 -17 13 -33 18 -47 14 -26 -9 -20 -28 12 -35 28 -7 53 -50 39 -64 -7 -7
-23 -5 -46 3 -39 14 -59 5 -48 -22 4 -11 18 -17 41 -17 59 0 98 -32 51 -43
-217 -49 -300 -57 -354 -36 -16 5 -43 26 -62 45 -18 19 -60 48 -92 64 -32 16
-67 42 -78 57 -11 15 -23 25 -27 22 -12 -13 45 -66 103 -97 61 -32 108 -74 67
-58 -30 11 -75 19 -75 13 0 -3 39 -20 88 -38 108 -40 192 -42 332 -8 52 12
112 23 133 23 20 0 37 2 37 4 0 3 -17 20 -37 38 -21 18 -33 33 -27 34 6 0 17
-7 24 -15 15 -18 50 -20 50 -2 0 19 -21 37 -42 37 -10 0 -18 4 -18 9 0 5 -3
16 -6 25 -5 12 0 16 20 16 21 0 29 -7 38 -30 5 -17 15 -29 22 -27 17 6 19 42
1 57 -20 17 -21 72 0 64 8 -4 15 -16 15 -28 0 -12 6 -30 13 -40 12 -17 14 -17
27 -1 11 13 11 23 2 47 -13 36 -7 52 16 43 11 -4 8 3 -7 19 -28 30 -33 32 -25
11 4 -8 1 -21 -5 -29 -14 -16 -51 -9 -51 9 0 15 -27 45 -39 45 -5 0 -14 -6
-20 -14z m34 -17 c11 -17 -1 -21 -15 -4 -8 9 -8 15 -2 15 6 0 14 -5 17 -11z
m82 -101 c-3 -7 -5 -2 -5 12 0 14 2 19 5 13 2 -7 2 -19 0 -25z m-187 -78 c0
-5 -4 -10 -9 -10 -6 0 -13 5 -16 10 -3 6 1 10 9 10 9 0 16 -4 16 -10z"/>
<path d="M8169 5803 c12 -24 35 -30 46 -13 3 6 -2 10 -12 10 -11 0 -25 6 -32
13 -11 10 -11 8 -2 -10z"/>
<path d="M6420 5776 c-17 -19 -29 -24 -50 -19 -25 4 -29 1 -39 -30 -9 -26 -9
-42 -2 -56 15 -28 14 -41 -5 -41 -9 0 -18 -8 -21 -17 -2 -10 -19 -27 -36 -38
-34 -22 -47 -60 -27 -79 9 -8 11 -6 6 11 -8 24 23 63 49 63 8 0 15 6 15 14 0
8 12 23 26 33 25 19 26 21 14 55 -17 45 -7 72 22 65 15 -4 32 3 55 23 33 29
34 29 68 13 31 -15 35 -21 35 -55 0 -20 -7 -58 -16 -83 -22 -66 -9 -79 71 -72
91 7 167 46 240 122 34 36 60 67 57 70 -3 3 -11 0 -19 -6 -10 -9 -13 -6 -13
14 0 14 -4 28 -9 31 -5 3 -9 -10 -9 -30 0 -58 -44 -109 -126 -149 -76 -36
-152 -52 -176 -36 -12 8 -12 16 -3 43 17 50 25 107 18 128 -6 20 -57 50 -85
50 -9 0 -27 -11 -40 -24z"/>
<path d="M6122 5767 c-6 -6 -13 -24 -17 -39 -7 -28 -29 -43 -47 -32 -6 4 -8 1
-6 -7 3 -8 14 -13 26 -12 16 2 19 -2 14 -19 -3 -14 -1 -19 6 -14 7 4 12 15 12
24 0 9 9 31 20 47 30 45 23 90 -8 52z"/>
<path d="M6907 5773 c-9 -2 -15 -9 -11 -14 3 -5 10 -7 15 -4 5 4 37 10 72 14
l62 8 -60 1 c-33 0 -68 -2 -78 -5z"/>
<path d="M6010 5655 c-19 -20 -20 -25 -7 -25 20 0 49 29 42 41 -8 12 -8 12
-35 -16z"/>
<path d="M8406 5614 c-60 -24 -112 -41 -117 -38 -10 6 -12 -7 -3 -30 4 -11 10
-12 22 -5 26 14 202 79 217 79 8 0 11 7 8 20 -3 11 -8 20 -12 19 -3 -1 -55
-21 -115 -45z"/>
<path d="M6938 5631 c-48 -17 -72 -32 -47 -30 27 1 113 35 103 41 -5 3 -30 -2
-56 -11z"/>
<path d="M6140 5624 c-11 -12 -11 -18 1 -29 13 -13 17 -13 37 1 12 8 22 22 22
30 0 19 -44 18 -60 -2z m30 -14 c-24 -15 -37 -11 -16 5 11 8 22 12 25 9 3 -3
-1 -9 -9 -14z"/>
<path d="M6076 5615 c-3 -8 -16 -15 -29 -15 -31 0 -57 -27 -34 -36 9 -3 24 -1
36 5 30 17 46 14 31 -4 -7 -9 -32 -20 -56 -26 -47 -12 -60 -39 -27 -58 23 -12
11 -25 -16 -16 -12 3 -21 16 -23 32 -2 15 -8 28 -14 30 -17 6 -25 -26 -13 -49
14 -25 3 -36 -16 -17 -24 23 -9 79 20 79 27 0 49 24 41 45 -8 22 -25 18 -19
-5 3 -12 0 -21 -8 -22 -8 0 -19 -2 -25 -2 -18 -2 -44 -27 -44 -43 0 -7 -8 -16
-17 -20 -28 -10 -53 -35 -46 -46 3 -5 1 -7 -4 -4 -6 4 -18 -2 -27 -12 -14 -16
-15 -20 -2 -30 11 -10 21 -9 45 3 36 19 109 20 133 3 9 -7 33 -33 53 -57 20
-24 50 -54 67 -66 l29 -22 -37 -30 c-40 -33 -90 -47 -134 -37 -16 3 -53 2 -83
-4 -67 -12 -125 0 -189 40 -27 16 -51 29 -54 29 -12 0 10 -23 40 -41 l31 -19
-60 0 c-33 0 -67 -5 -75 -10 -10 -7 9 -10 65 -10 98 -1 73 -17 -42 -27 -40 -3
-76 -10 -79 -14 -3 -5 4 -9 15 -9 38 0 174 21 200 32 14 5 75 12 136 13 l109
4 -26 -22 c-14 -12 -38 -41 -53 -64 -35 -54 -85 -88 -198 -133 -72 -29 -97
-44 -114 -70 -24 -35 -29 -50 -15 -50 5 0 16 15 24 34 14 28 28 38 90 61 111
42 183 90 229 151 58 79 134 112 228 99 48 -6 50 -8 113 -98 79 -112 92 -136
43 -79 -62 72 -118 89 -165 52 -15 -11 -41 -20 -63 -20 -33 0 -38 -3 -43 -29
-5 -23 -13 -31 -35 -36 -41 -9 -63 -44 -49 -79 8 -21 7 -32 -5 -49 -8 -12 -15
-39 -15 -60 0 -50 20 -127 32 -127 6 0 7 8 3 18 -28 74 -22 172 12 172 8 0 13
3 11 8 -2 4 -10 19 -17 34 -18 35 -9 56 26 64 39 9 53 23 53 50 0 21 4 23 24
18 16 -4 40 3 71 19 71 38 98 21 208 -129 41 -56 91 -114 112 -130 l37 -28
-38 -11 c-20 -5 -39 -15 -41 -22 -3 -8 7 -7 34 2 21 7 42 10 48 7 5 -3 -5 -10
-22 -14 -31 -8 -50 -24 -40 -34 3 -3 17 2 31 11 20 14 38 16 76 11 28 -4 50
-4 50 0 0 11 -133 134 -139 129 -2 -3 6 -17 20 -32 l24 -27 -32 22 c-29 21
-77 75 -98 112 -8 13 -7 13 8 1 9 -7 17 -9 17 -4 0 9 -107 170 -158 239 -15
20 -22 41 -20 60 3 26 7 29 43 32 30 3 46 11 65 34 22 26 30 30 56 24 17 -4
43 -19 57 -34 33 -36 84 -136 97 -192 5 -25 13 -58 16 -75 5 -21 8 -25 11 -13
8 31 -17 123 -51 194 -40 85 -92 134 -141 134 -42 0 -60 27 -52 77 4 20 2 31
-4 28 -5 -4 -9 -13 -9 -22 0 -14 -3 -13 -21 3 -14 13 -19 27 -16 47 5 38 -10
45 -18 8 -4 -20 -1 -38 10 -54 15 -24 15 -26 -16 -56 -18 -18 -29 -38 -25 -46
8 -21 -10 -28 -52 -20 -29 5 -54 25 -115 87 -43 44 -76 82 -73 85 11 12 54 -8
59 -27 3 -12 14 -20 25 -20 33 0 35 17 5 39 -36 29 -19 45 50 46 39 0 52 4 52
15 0 10 -10 15 -32 15 -44 0 -48 19 -11 50 29 25 30 26 10 32 -12 3 -20 9 -17
13 3 5 1 11 -4 14 -5 3 -11 -1 -15 -9z m-18 -103 c2 -7 -6 -12 -17 -12 -21 0
-27 11 -14 24 9 9 26 2 31 -12z m-169 -51 c9 -15 7 -20 -12 -25 -37 -10 -47
-7 -40 12 13 34 38 41 52 13z m-84 -41 c3 -5 1 -10 -4 -10 -6 0 -11 5 -11 10
0 6 2 10 4 10 3 0 8 -4 11 -10z m479 -87 c12 -24 12 -31 0 -55 -15 -29 -61
-42 -51 -14 3 8 -1 17 -9 20 -22 9 -17 32 14 55 15 11 28 21 29 21 1 0 9 -12
17 -27z m-94 -88 c-7 -8 -14 -15 -15 -15 -2 0 -5 7 -9 15 -4 10 1 15 16 15 17
0 18 -2 8 -15z m-35 -16 c10 -29 -4 -38 -44 -27 -32 9 -33 10 -15 29 23 25 51
24 59 -2z"/>
<path d="M5915 5611 c-27 -11 -51 -40 -65 -75 -9 -25 -9 -27 4 -17 9 7 18 21
21 32 4 10 12 19 19 19 7 0 23 11 36 25 24 26 20 30 -15 16z"/>
<path d="M6757 5570 c-100 -39 -172 -84 -161 -101 3 -5 11 -6 17 -3 8 5 8 2
-1 -7 -10 -11 -21 -9 -66 14 -36 18 -69 27 -101 27 -52 0 -129 -31 -139 -55
-7 -20 1 -19 31 5 34 27 98 43 136 34 18 -3 52 -18 76 -32 41 -24 46 -25 70
-11 30 17 51 14 51 -7 0 -8 5 -14 10 -14 16 0 12 18 -10 40 -20 20 -20 20 3
24 12 3 40 9 62 14 l40 10 -35 1 c-19 1 -50 -3 -68 -8 -17 -5 -32 -8 -32 -5 0
6 91 49 158 74 34 12 65 27 68 31 8 14 -5 10 -109 -31z"/>
<path d="M5165 5545 c-28 -27 -33 -71 -11 -100 12 -17 12 -22 0 -39 -36 -52
-7 -107 69 -132 28 -9 83 -33 120 -51 46 -23 87 -36 125 -39 41 -3 51 -2 37 5
-11 5 -33 10 -48 10 -16 1 -63 17 -105 37 -42 19 -101 45 -130 56 -61 23 -79
49 -63 90 8 20 18 27 43 30 l33 3 -37 17 c-33 15 -38 21 -38 50 0 41 11 58 47
74 26 12 26 12 5 13 -13 1 -34 -10 -47 -24z"/>
<path d="M6993 5549 c-29 -10 -79 -21 -110 -25 -88 -8 -109 -14 -94 -24 10 -6
6 -12 -16 -24 -37 -19 -44 -34 -36 -83 l6 -38 -32 29 c-17 17 -31 25 -31 19 0
-5 9 -18 21 -29 46 -41 50 -64 43 -227 -6 -145 -6 -153 14 -170 20 -18 20 -18
27 15 12 53 7 198 -9 268 -8 36 -18 90 -21 121 -7 55 -7 55 31 84 32 24 48 29
97 30 33 1 66 -5 75 -12 24 -18 45 -16 65 7 24 28 57 25 103 -10 40 -30 60
-38 49 -19 -14 22 -89 69 -110 69 -12 0 -34 -9 -49 -21 -16 -13 -33 -18 -46
-14 -32 10 -24 20 36 40 30 10 57 22 60 27 7 12 -14 8 -73 -13z m-215 -449 c0
-84 -9 -132 -22 -112 -4 7 -4 61 0 120 8 120 23 115 22 -8z"/>
<path d="M5650 5479 c-13 -5 -33 -17 -42 -26 -15 -14 -24 -14 -57 -5 -52 16
-81 15 -81 -3 0 -8 9 -20 21 -27 11 -7 38 -43 60 -80 22 -38 44 -68 49 -68 15
0 -40 97 -78 138 -18 19 -30 37 -28 40 3 2 25 -4 50 -13 l45 -17 31 26 c39 32
87 34 124 5 29 -23 36 -11 8 14 -24 22 -71 29 -102 16z"/>
<path d="M4187 5440 c-3 -25 -9 -66 -12 -91 -11 -91 -81 -182 -169 -220 -32
-14 -81 -24 -131 -28 -60 -3 -73 -7 -50 -12 17 -4 49 -7 72 -8 102 -3 207 -72
253 -165 11 -24 25 -78 29 -121 5 -42 11 -78 14 -81 2 -2 7 31 9 74 7 97 38
163 104 221 52 46 109 66 217 75 66 6 68 6 77 -19 14 -36 13 -88 -2 -103 -19
-19 -44 -14 -77 14 l-31 26 0 -27 c0 -16 12 -38 29 -56 24 -24 38 -29 75 -29
l46 0 -31 -52 c-53 -89 -90 -140 -151 -210 -33 -38 -57 -68 -53 -68 4 0 -1 -7
-9 -16 -38 -37 -6 -126 68 -191 71 -63 78 -112 24 -170 -11 -12 -19 -26 -17
-32 8 -23 62 62 67 104 4 42 5 43 35 34 49 -14 62 9 30 58 l-17 25 42 -21 c23
-12 42 -17 42 -11 0 6 -16 18 -36 26 -49 21 -65 6 -41 -36 17 -29 17 -30 0
-30 -28 0 -78 34 -108 74 -35 46 -68 133 -53 138 9 3 9 6 0 12 -21 13 -25 -21
-8 -70 13 -38 13 -44 1 -34 -23 19 -37 74 -26 102 5 14 35 54 67 89 65 74 108
136 187 271 79 134 81 141 58 186 -10 20 -29 46 -41 57 l-22 20 -19 -24 c-11
-13 -21 -22 -22 -20 -2 2 -9 15 -15 29 l-12 25 4 -29 4 -29 -82 5 c-187 12
-288 111 -305 299 -7 79 -8 81 -14 39z m497 -358 c30 -44 31 -53 11 -92 -13
-24 -19 -28 -37 -21 -14 5 -25 20 -29 40 -7 33 8 111 21 111 4 0 19 -17 34
-38z m-21 -148 c-7 -18 -61 -35 -92 -28 -29 7 -61 32 -61 48 0 6 5 5 12 -2 17
-17 73 -15 88 2 14 18 61 1 53 -20z"/>
<path d="M7200 5465 c0 -3 9 -15 20 -27 l20 -22 0 27 c0 20 -5 27 -20 27 -11
0 -20 -2 -20 -5z"/>
<path d="M8332 5435 c6 -14 19 -25 30 -25 24 0 23 2 -12 28 l-30 22 12 -25z"/>
<path d="M7220 5400 c0 -5 5 -10 10 -10 6 0 10 5 10 10 0 6 -4 10 -10 10 -5 0
-10 -4 -10 -10z"/>
<path d="M7265 5403 c26 -6 55 -32 55 -49 0 -7 -11 -29 -23 -48 -19 -27 -25
-53 -30 -128 l-7 -93 -88 -86 c-48 -48 -87 -91 -87 -95 0 -5 -4 -15 -9 -22
-11 -18 -2 -25 23 -17 45 14 176 173 158 192 -4 3 2 16 12 29 11 14 22 50 26
83 8 68 21 79 68 56 35 -17 37 -18 37 -7 0 12 -46 32 -73 32 -13 0 -29 -6 -36
-12 -20 -19 -4 28 25 74 13 21 24 42 24 48 0 20 -41 50 -67 49 -21 -1 -23 -2
-8 -6z m-28 -361 c-10 -10 -17 -23 -17 -29 0 -14 -87 -111 -110 -123 -14 -8
-18 -6 -16 6 2 13 144 164 155 164 2 0 -3 -8 -12 -18z"/>
<path d="M2991 5280 c0 -8 14 -26 32 -39 l32 -25 -25 30 c-14 16 -28 33 -32
39 -5 5 -8 3 -7 -5z"/>
<path d="M4703 5253 c3 -10 13 -40 22 -68 l15 -50 -46 45 -47 45 48 -57 c27
-32 50 -58 52 -58 9 0 -8 103 -21 129 -18 34 -32 42 -23 14z"/>
<path d="M3234 5232 c-8 -8 -194 -88 -255 -111 -15 -5 -29 -19 -32 -30 -5 -22
2 -27 18 -13 21 18 137 62 147 56 6 -4 8 -3 5 3 -3 5 23 20 59 34 39 14 66 31
70 42 7 22 2 30 -12 19z"/>
<path d="M7444 5218 c-5 -8 0 -9 15 -5 17 4 29 -4 53 -34 23 -29 39 -39 60
-39 22 0 31 -7 42 -35 9 -20 26 -39 41 -45 21 -8 25 -16 26 -52 0 -33 2 -38 9
-22 13 31 0 73 -26 87 -14 7 -32 28 -42 47 -10 22 -25 35 -37 36 -37 2 -40 4
-64 39 -24 36 -62 47 -77 23z"/>
<path d="M8492 5213 c-34 -16 -54 -46 -66 -95 -9 -38 6 -35 24 5 11 22 33 41
74 61 58 29 60 30 102 14 52 -19 56 -15 12 12 -40 24 -101 25 -146 3z"/>
<path d="M5241 5206 c-33 -18 -50 -53 -51 -103 0 -35 7 -49 48 -96 26 -31 48
-54 50 -52 7 7 -28 63 -42 68 -8 3 -22 20 -31 38 -32 61 8 139 71 139 17 0 61
-14 98 -31 36 -17 73 -29 82 -27 20 4 -153 79 -181 78 -11 0 -31 -7 -44 -14z"/>
<path d="M7410 5210 c0 -5 5 -10 11 -10 5 0 7 5 4 10 -3 6 -8 10 -11 10 -2 0
-4 -4 -4 -10z"/>
<path d="M8690 5104 c0 -32 -41 -83 -84 -103 -47 -23 -96 -27 -129 -9 -20 10
-21 10 -8 -5 7 -9 31 -22 52 -27 85 -23 167 30 176 114 3 25 3 46 -1 46 -3 0
-6 -7 -6 -16z"/>
<path d="M3171 5049 c15 -23 27 -32 31 -25 11 16 10 26 -4 26 -6 0 -20 8 -31
18 -15 14 -15 10 4 -19z"/>
<path d="M4839 4955 c-3 -38 -12 -71 -24 -88 -22 -30 -89 -66 -126 -68 -13 -1
-2 -5 25 -10 80 -13 125 -70 127 -161 l2 -53 7 62 c4 34 15 73 24 88 24 36 74
65 116 66 34 1 34 1 -14 14 -80 22 -115 65 -126 155 l-6 55 -5 -60z"/>
<path d="M6740 4964 c0 -17 17 -36 24 -26 3 5 -1 15 -9 22 -8 7 -15 9 -15 4z"/>
<path d="M7651 4915 c-12 -25 -26 -70 -30 -100 -9 -65 -24 -83 -118 -146 -68
-44 -148 -79 -253 -111 -59 -17 -53 -33 14 -33 46 0 72 10 180 64 151 76 184
74 135 -6 -17 -26 -18 -37 -9 -48 6 -8 9 -19 5 -26 -12 -18 -108 -57 -176 -70
-35 -7 -68 -17 -74 -21 -19 -17 16 -25 63 -16 26 5 64 6 85 2 23 -3 37 -2 37
5 0 5 -17 11 -37 13 -30 3 -34 5 -18 11 73 28 145 71 145 87 0 10 -5 20 -11
22 -8 3 -4 18 12 45 20 35 21 43 10 57 -19 23 -48 20 -118 -14 -35 -16 -63
-28 -63 -26 0 2 30 22 68 44 111 67 142 107 142 189 0 13 9 42 21 64 11 22 19
45 17 51 -2 5 -14 -11 -27 -37z m-256 -334 c-9 -9 -126 -51 -141 -51 -18 0 10
14 68 35 71 26 86 29 73 16z"/>
<path d="M5292 4935 c3 -4 21 -7 40 -8 27 -2 36 -8 47 -35 11 -23 24 -35 50
-42 48 -13 51 -5 5 17 -25 12 -40 27 -44 43 -5 22 -12 25 -55 28 -27 2 -47 0
-43 -3z"/>
<path d="M5660 4912 c0 -11 22 -32 32 -32 5 0 4 9 -2 20 -11 20 -30 28 -30 12z"/>
<path d="M6794 4896 c-4 -10 -2 -34 5 -52 7 -19 10 -38 7 -43 -7 -11 -75 8
-95 27 -7 7 -18 11 -24 9 -19 -6 -19 -27 0 -34 22 -8 33 -23 33 -46 0 -14 -5
-16 -25 -11 -34 8 -32 -5 3 -17 31 -11 68 -65 49 -72 -7 -3 -27 6 -44 20 -18
13 -33 20 -33 14 0 -5 5 -13 10 -16 6 -3 10 -11 10 -17 0 -7 -6 -6 -15 2 -11
9 -15 9 -15 1 0 -7 14 -17 31 -23 28 -10 29 -11 13 -29 -9 -10 -20 -16 -24
-14 -13 8 -40 -6 -40 -21 0 -15 36 -19 44 -5 4 5 18 6 33 2 36 -9 39 -65 6
-87 -27 -17 -29 -36 -8 -54 20 -16 45 3 45 35 0 12 7 29 16 36 14 11 19 10 35
-10 11 -13 19 -36 19 -52 0 -18 6 -32 15 -36 24 -9 30 5 18 38 -7 17 -9 37 -6
45 4 12 8 12 25 0 11 -8 29 -28 39 -45 10 -17 26 -31 34 -31 22 0 19 14 -10
48 -14 17 -25 35 -25 41 0 20 54 0 83 -31 29 -31 50 -33 55 -4 2 11 -8 21 -31
31 -30 12 -47 31 -47 52 0 5 26 3 105 -9 12 -2 21 4 23 15 3 14 -4 17 -35 17
-36 0 -63 14 -63 32 0 4 14 15 30 23 40 21 30 35 -26 35 -46 0 -56 15 -34 50
6 9 5 20 -3 29 -9 12 -9 13 1 7 15 -9 72 30 72 50 0 22 -28 16 -45 -10 -9 -14
-30 -29 -46 -35 -31 -11 -34 -8 -53 53 -6 18 -8 18 -30 -3 -23 -22 -25 -22
-34 -4 -6 10 -8 30 -5 44 3 16 -3 34 -15 49 -19 23 -21 24 -28 6z m23 -48 c-3
-7 -5 -2 -5 12 0 14 2 19 5 13 2 -7 2 -19 0 -25z m-27 -99 c0 -20 5 -29 16
-29 13 0 15 7 11 30 -7 31 6 49 19 28 5 -7 7 -25 5 -40 -3 -29 13 -45 25 -26
4 7 7 25 6 40 -3 37 16 45 28 12 8 -19 7 -30 -1 -41 -7 -8 -8 -13 -3 -11 5 2
10 0 12 -4 1 -5 0 -8 -3 -8 -3 1 -13 -7 -22 -15 -12 -12 -18 -13 -23 -4 -7 11
-33 9 -73 -7 -11 -4 -13 1 -10 19 4 19 0 27 -15 31 -11 4 -23 17 -26 29 -11
42 -8 47 24 36 24 -9 30 -17 30 -40z m180 -21 c0 -16 -22 -52 -37 -61 -19 -12
-5 -29 18 -22 28 9 86 -5 68 -16 -8 -5 -26 -9 -41 -9 -16 0 -28 -4 -28 -10 0
-5 8 -10 18 -10 19 0 42 -18 42 -32 0 -14 -33 -9 -52 9 -27 24 -35 7 -10 -20
12 -13 22 -29 22 -35 0 -21 -57 14 -63 39 -4 14 -11 20 -21 16 -8 -3 -18 -2
-21 4 -14 21 -27 -5 -21 -42 3 -21 2 -40 -3 -44 -17 -10 -31 30 -24 69 4 27 2
36 -9 36 -8 0 -15 -12 -16 -32 -2 -17 -8 -38 -15 -46 -10 -13 -13 -11 -18 14
-4 22 1 37 23 62 23 27 27 37 17 48 -6 8 -9 14 -6 14 3 0 13 3 21 6 13 5 15 2
9 -12 -6 -18 -5 -18 14 -2 17 16 22 16 39 4 18 -14 18 -16 2 -32 -14 -14 -20
-15 -30 -6 -17 17 -33 15 -18 -3 28 -34 76 -6 68 39 -4 18 0 26 14 29 10 3 18
14 18 27 0 13 -4 19 -12 14 -6 -4 -9 -3 -5 2 7 12 57 14 57 2z m-212 -128
c-13 -20 -29 -26 -41 -13 -8 7 23 32 41 33 10 0 10 -4 0 -20z m140 -75 c16
-35 15 -37 -8 -25 -11 6 -20 20 -20 30 0 28 15 25 28 -5z m-148 -52 c0 -5 -4
-15 -10 -23 -11 -18 -25 -7 -17 15 6 15 27 21 27 8z m290 -3 c0 -5 -2 -10 -4
-10 -3 0 -8 5 -11 10 -3 6 -1 10 4 10 6 0 11 -4 11 -10z"/>
<path d="M6552 4868 c11 -31 48 -89 48 -74 0 10 -50 106 -55 106 -2 0 1 -15 7
-32z"/>
<path d="M6897 4883 c-4 -3 -7 -15 -7 -27 0 -20 0 -20 16 0 15 18 15 18 9 -11
-6 -28 -5 -29 10 -14 11 11 15 24 10 38 -6 21 -25 28 -38 14z"/>
<path d="M5713 4825 c0 -22 2 -30 4 -17 2 12 2 30 0 40 -3 9 -5 -1 -4 -23z"/>
<path d="M5760 4813 c1 -15 49 -98 50 -85 0 19 -26 79 -39 86 -6 4 -11 4 -11
-1z"/>
<path d="M2907 4789 c-4 -16 -2 -17 14 -8 23 12 23 15 5 22 -8 3 -16 -2 -19
-14z"/>
<path d="M5095 4740 c-15 -24 156 -209 256 -277 55 -38 109 -66 115 -60 3 3
-19 19 -48 37 -91 55 -159 112 -230 193 -69 78 -86 109 -45 83 12 -8 24 -15
27 -15 3 0 16 -4 30 -9 34 -13 210 -22 210 -11 0 5 -29 9 -65 9 -35 0 -88 5
-117 11 -29 7 -54 11 -56 10 -1 -1 -14 7 -29 19 -29 23 -39 25 -48 10z"/>
<path d="M8735 4721 c-6 -6 -65 -11 -132 -12 -108 -2 -123 -4 -123 -19 0 -14
8 -16 50 -12 37 3 50 1 50 -9 0 -10 3 -10 12 -1 7 7 42 12 85 12 71 0 73 1 73
25 0 28 -2 29 -15 16z"/>
<path d="M3161 4699 c0 -15 -10 -37 -20 -50 -17 -21 -29 -24 -88 -26 -37 -1
-87 2 -110 7 -24 4 -43 4 -43 -1 0 -4 -2 -13 -5 -21 -4 -10 16 -14 94 -16 54
-1 110 2 124 7 32 12 60 63 54 99 l-4 27 -2 -26z"/>
<path d="M5711 4703 c-2 -55 46 -167 130 -300 13 -21 19 -45 17 -69 l-3 -37
-52 80 c-52 80 -181 211 -242 246 -46 27 -38 4 11 -28 82 -55 191 -173 241
-261 3 -6 -18 -3 -47 7 -30 10 -87 23 -127 29 -41 6 -93 17 -116 25 -24 8 -43
12 -43 10 0 -14 72 -37 157 -51 102 -16 183 -45 183 -65 0 -7 -7 -8 -17 -4
-78 32 -214 29 -246 -5 -10 -11 -8 -11 8 -5 11 5 43 10 70 12 44 2 47 1 23 -8
-45 -17 -32 -30 13 -14 61 22 67 19 27 -18 -19 -18 -52 -65 -72 -106 -70 -142
-222 -303 -321 -340 -31 -12 -61 -21 -68 -21 -7 0 -27 -9 -45 -20 l-34 -21 7
22 c10 31 125 150 229 236 49 41 101 90 115 109 14 20 45 60 69 91 24 30 42
57 39 59 -6 6 -64 -60 -103 -117 -17 -25 -82 -88 -145 -141 -104 -88 -164
-149 -212 -217 l-18 -26 4 35 c2 19 12 53 21 75 15 35 15 38 1 24 -29 -29 -58
-182 -38 -202 3 -4 22 11 40 33 19 22 43 40 53 40 36 0 135 43 183 79 73 55
195 205 236 291 47 98 95 139 163 140 20 0 38 6 41 13 3 8 7 6 12 -7 5 -12 -7
-80 -34 -185 -49 -195 -54 -290 -21 -408 20 -71 20 -72 1 -135 -15 -48 -41
-166 -41 -184 0 -10 -270 -106 -335 -120 -156 -32 -202 -37 -340 -37 -89 1
-175 7 -212 15 -47 11 -60 12 -52 2 18 -22 176 -37 336 -31 l152 5 40 -28
c105 -76 121 -137 121 -469 1 -154 5 -241 11 -241 7 0 9 91 6 263 -5 323 -10
345 -98 428 l-60 56 48 13 c27 7 51 13 55 12 7 -2 156 46 251 81 l69 25 -7
-60 c-5 -44 -4 -59 4 -54 6 4 11 20 11 35 0 80 5 86 114 132 55 23 136 60 180
80 l78 38 38 -19 c61 -31 117 -40 174 -28 61 12 52 12 151 5 l80 -6 -70 15
c-38 8 -86 12 -105 9 -133 -20 -132 -20 -237 28 -54 25 -109 48 -122 52 l-25
8 29 14 c55 29 171 65 225 69 30 3 60 7 67 9 22 7 148 -16 252 -45 57 -17 106
-28 109 -25 6 6 2 7 -123 45 -126 39 -242 48 -341 27 -134 -29 -314 -114 -400
-189 -19 -17 -37 -29 -39 -26 -5 4 32 135 51 183 7 17 5 18 -8 8 -13 -11 -17
-1 -33 82 -19 103 -16 192 10 278 8 26 14 50 14 52 0 3 7 29 15 58 22 77 46
222 46 282 0 65 -28 216 -42 230 -8 7 -9 2 -4 -15 16 -63 27 -150 24 -184 l-3
-37 -53 93 c-29 51 -60 118 -68 148 -9 30 -20 64 -24 75 -8 19 -9 19 -9 -2z
m360 -1165 c22 -6 39 -14 39 -18 0 -5 -240 -116 -317 -147 -22 -9 -14 35 10
58 12 12 53 43 91 70 75 53 105 59 177 37z"/>
<path d="M7090 4675 c-21 -12 -23 -14 -8 -20 25 -10 53 -2 53 14 0 20 -16 22
-45 6z"/>
<path d="M5440 4670 c0 -7 24 -20 36 -20 13 0 1 19 -16 23 -11 3 -20 2 -20 -3z"/>
<path d="M6371 4617 c-1 -26 30 -84 84 -152 26 -33 54 -73 62 -90 9 -17 18
-25 20 -17 3 7 -27 56 -65 110 -39 53 -77 113 -85 132 -9 21 -16 28 -16 17z"/>
<path d="M5970 4595 c7 -8 21 -15 31 -15 11 0 19 -1 19 -3 0 -1 -4 -16 -9 -32
-19 -67 31 -105 138 -105 l60 0 -24 -42 c-29 -50 -33 -126 -10 -162 15 -22 13
-26 -46 -102 -81 -104 -162 -224 -151 -224 4 0 28 28 52 63 24 34 72 99 108
145 l64 83 24 -22 c12 -12 26 -34 29 -50 6 -28 25 -51 25 -30 0 25 -24 68 -59
106 -45 49 -56 88 -41 142 18 66 55 96 130 107 60 9 110 25 110 37 0 16 -58
10 -123 -12 -80 -27 -214 -30 -252 -5 -27 18 -31 39 -15 82 13 32 7 39 -39 48
-29 5 -32 4 -21 -9z"/>
<path d="M6463 4581 c15 -18 27 -40 27 -50 0 -21 22 -42 66 -64 18 -9 46 -32
64 -51 18 -19 44 -37 56 -40 13 -4 23 -10 22 -14 0 -4 2 -15 7 -25 10 -23 -13
-50 -37 -44 -15 4 -18 1 -13 -13 6 -19 -25 -60 -45 -60 -21 0 -48 39 -55 79
-4 23 -11 41 -17 41 -6 0 -7 -7 -4 -16 3 -9 6 -24 6 -34 0 -28 48 -80 75 -80
14 0 32 11 44 28 24 31 33 41 56 61 20 16 35 1 66 -67 17 -37 20 -55 14 -116
-6 -58 -4 -79 10 -105 9 -18 19 -31 22 -28 2 3 0 15 -7 26 -6 13 -10 57 -8
106 3 101 17 99 50 -9 11 -39 29 -88 39 -108 19 -36 70 -83 99 -90 19 -4 32
-14 97 -72 67 -61 111 -68 150 -22 22 26 26 27 53 16 43 -18 95 2 124 48 13
21 33 46 45 56 23 21 27 46 10 63 -9 9 -8 21 5 47 16 34 16 38 -4 83 -22 49
-17 63 23 63 10 0 16 4 13 9 -10 15 -61 -4 -64 -23 -2 -10 4 -36 14 -58 16
-36 16 -41 1 -72 -13 -28 -13 -37 -2 -53 11 -16 8 -25 -32 -78 -25 -33 -50
-63 -57 -67 -17 -12 -64 -9 -85 4 -17 10 -24 7 -49 -20 -42 -45 -72 -42 -130
11 -26 24 -75 60 -109 81 -70 41 -94 74 -118 161 -27 92 -59 145 -149 242 -16
18 -27 36 -23 39 13 13 114 -47 187 -112 118 -104 209 -141 371 -151 104 -6
128 3 81 32 -33 22 -62 51 -62 63 0 5 17 9 38 9 20 -1 52 6 71 16 19 9 40 17
48 17 13 0 18 12 7 22 -3 3 -24 -5 -47 -17 -39 -22 -65 -29 -94 -26 -7 0 -31
19 -53 40 -51 50 -109 64 -230 59 -49 -3 -92 -7 -95 -9 -2 -3 43 -13 102 -22
163 -27 212 -43 232 -80 9 -17 28 -44 43 -59 l26 -28 -26 -1 c-150 -8 -283 40
-400 145 -84 75 -128 102 -198 120 -42 11 -67 25 -90 50 -17 19 -50 44 -73 55
-31 16 -43 29 -48 52 -3 17 -18 38 -37 51 l-31 23 28 -34z m685 -282 c28 -5
58 -16 68 -24 14 -10 -2 -8 -59 5 -43 10 -84 21 -90 24 -23 9 32 6 81 -5z"/>
<path d="M8735 4582 c-11 -36 -76 -52 -118 -31 l-22 11 21 -21 c29 -31 91 -32
116 -2 10 13 18 32 18 42 0 24 -7 24 -15 1z"/>
<path d="M4470 4520 c-18 -6 -8 -8 40 -9 54 -1 72 -6 105 -28 31 -22 55 -28
108 -31 42 -3 67 0 67 6 0 6 -23 10 -58 9 -49 -2 -64 3 -108 31 -52 33 -99 40
-154 22z"/>
<path d="M4838 4433 c48 -42 52 -81 12 -127 -43 -49 -89 -50 -137 -4 -18 18
-33 26 -33 19 0 -7 14 -26 31 -42 97 -91 244 58 150 152 -16 16 -35 29 -42 29
-7 0 1 -12 19 -27z"/>
<path d="M7080 4411 c0 -5 14 -20 31 -32 32 -23 62 -26 180 -18 l57 3 -27 28
c-25 27 -29 28 -133 28 -60 0 -108 -4 -108 -9z m205 -11 c-11 -5 -38 -8 -60
-8 l-40 1 40 7 c22 4 49 7 60 8 l20 1 -20 -9z m-105 -20 l25 -8 -25 -1 c-14 0
-32 4 -40 9 -13 9 -13 10 0 9 8 -1 26 -5 40 -9z"/>
<path d="M7520 4402 c0 -4 16 -14 35 -21 74 -27 79 -80 11 -139 -44 -38 -46
-48 -6 -27 36 19 70 70 70 106 0 14 -10 35 -22 46 -39 35 -88 55 -88 35z"/>
<path d="M7392 4344 c15 -15 30 -26 33 -23 2 3 -10 16 -28 29 l-32 23 27 -29z"/>
<path d="M8480 4281 c0 -13 8 -22 23 -25 42 -9 92 -15 165 -21 58 -5 72 -3 72
8 0 10 -30 17 -117 27 -65 7 -124 17 -130 22 -10 8 -13 5 -13 -11z"/>
<path d="M5474 4242 c-102 -68 -246 -220 -289 -303 -24 -46 -11 -34 43 39 57
76 184 202 255 252 26 18 47 35 47 37 0 9 -19 0 -56 -25z"/>
<path d="M8582 4150 c-9 -15 -7 -19 11 -24 26 -7 26 -6 12 21 -11 20 -12 21
-23 3z"/>
<path d="M8458 4138 c-4 -20 1 -27 25 -36 27 -10 28 -10 15 6 -9 9 -20 25 -25
36 -9 17 -11 17 -15 -6z"/>
<path d="M4490 4131 c0 -6 20 -11 48 -11 74 0 115 -16 194 -77 40 -31 106 -78
147 -105 40 -26 67 -48 58 -48 -8 0 -65 16 -126 35 -60 19 -134 37 -163 41
-96 11 -128 23 -128 46 0 22 -39 98 -51 98 -29 0 -18 -67 17 -110 l25 -29 -26
-48 c-14 -26 -25 -58 -25 -71 0 -35 27 -79 60 -98 26 -16 29 -23 25 -54 -2
-19 -7 -71 -9 -115 -4 -61 -3 -74 5 -55 6 14 13 64 16 111 l6 87 81 5 c60 3
121 18 234 54 l154 50 -74 7 c-86 8 -235 -7 -298 -29 -24 -9 -59 -27 -77 -41
-34 -25 -35 -26 -56 -7 -54 46 -61 89 -25 157 13 22 23 42 23 43 3 8 199 -31
280 -55 55 -17 118 -34 140 -37 22 -4 52 -9 68 -11 35 -7 36 12 0 21 -41 10
-148 75 -250 153 -51 39 -107 75 -125 80 -54 17 -148 25 -148 13z m14 -120
c-8 -8 -23 14 -29 44 l-6 30 20 -35 c10 -19 17 -37 15 -39z m426 -186 c0 -2
-50 -20 -111 -39 -114 -36 -239 -57 -239 -39 0 16 74 52 136 67 55 13 214 22
214 11z"/>
<path d="M8700 4105 c-10 -12 -10 -15 4 -15 9 0 16 7 16 15 0 8 -2 15 -4 15
-2 0 -9 -7 -16 -15z"/>
<path d="M6282 4058 c8 -13 37 -38 64 -57 43 -29 54 -32 96 -28 42 5 47 4 50
-15 3 -22 11 -28 68 -53 19 -8 50 -26 69 -40 32 -24 35 -24 53 -9 10 10 18 23
18 31 0 18 7 17 37 -7 31 -24 61 -25 91 -4 26 18 30 65 7 84 -12 10 -13 7 -6
-17 5 -17 5 -37 -1 -46 -13 -24 -60 -21 -93 5 -30 23 -30 23 -60 -28 -10 -16
-15 -14 -62 18 -28 20 -63 38 -77 42 -17 4 -28 15 -32 34 -10 42 -13 44 -45
25 -29 -17 -31 -17 -85 11 -31 16 -63 40 -71 53 -8 13 -20 23 -25 23 -6 0 -4
-10 4 -22z"/>
<path d="M5937 3858 c-31 -54 -75 -141 -87 -174 -19 -50 11 -13 40 49 16 34
43 86 60 115 17 28 26 52 21 52 -5 0 -20 -19 -34 -42z"/>
<path d="M8410 3879 c0 -4 -3 -15 -7 -25 -4 -11 -3 -15 5 -10 6 3 31 1 56 -6
39 -10 45 -15 40 -33 -6 -19 -5 -19 7 -2 13 16 17 16 82 -2 62 -18 67 -18 67
-3 0 13 -18 22 -72 36 -40 10 -97 27 -125 36 -29 10 -53 14 -53 9z"/>
<path d="M1190 3845 c0 -25 0 -25 26 -9 14 10 42 21 62 25 32 6 29 7 -25 8
-61 1 -63 0 -63 -24z"/>
<path d="M1350 3628 c0 -211 -2 -244 -17 -260 -15 -17 -14 -18 36 -18 48 0 51
1 37 16 -14 13 -16 51 -16 260 0 237 -1 244 -20 244 -19 0 -20 -7 -20 -242z"/>
<path d="M1467 3860 c18 -4 44 -15 58 -24 24 -16 25 -16 25 9 0 24 -2 25 -57
24 -50 -1 -53 -2 -26 -9z"/>
<path d="M1669 3847 c-19 -12 -42 -38 -52 -58 -15 -32 -16 -41 -5 -75 16 -46
52 -72 151 -110 101 -38 147 -65 163 -96 20 -38 17 -71 -8 -104 -16 -20 -17
-25 -5 -15 48 38 59 106 27 158 -22 36 -64 60 -162 92 -87 29 -130 59 -141 98
-12 40 7 80 52 110 19 13 29 23 24 23 -6 0 -25 -10 -44 -23z"/>
<path d="M1877 3851 c17 -11 36 -28 42 -38 9 -15 10 -14 11 13 0 27 -4 32 -31
38 -51 10 -56 7 -22 -13z"/>
<path d="M2029 3853 c14 -12 54 -105 112 -258 50 -132 93 -242 95 -244 1 -2 6
8 9 21 5 17 -16 84 -69 223 -82 214 -89 250 -53 265 16 6 5 9 -47 9 -66 1 -68
1 -47 -16z"/>
<path d="M2367 3860 c13 -5 26 -23 32 -42 5 -18 10 -25 10 -15 1 10 12 29 26
42 l24 25 -57 -1 c-44 0 -52 -2 -35 -9z"/>
<path d="M2524 3854 c14 -13 16 -49 16 -241 0 -197 -2 -229 -17 -245 -15 -17
-14 -18 20 -18 l37 0 0 260 0 260 -36 0 c-32 0 -34 -1 -20 -16z"/>
<path d="M2763 3860 c27 -5 59 -16 73 -24 23 -16 24 -16 24 9 0 25 -1 25 -72
24 -72 -1 -72 -1 -25 -9z"/>
<path d="M2900 3843 c0 -24 1 -25 18 -10 10 9 36 21 58 26 l39 9 -57 1 c-56 1
-58 0 -58 -26z"/>
<path d="M3058 3624 c-3 -230 -4 -247 -22 -260 -18 -13 -14 -14 40 -14 45 1
55 3 42 11 -16 9 -18 32 -18 259 0 241 -1 250 -20 250 -18 0 -19 -10 -22 -246z"/>
<path d="M3172 3861 c20 -4 48 -15 62 -25 26 -16 26 -16 26 9 0 24 -2 25 -62
24 -55 -1 -58 -2 -26 -8z"/>
<path d="M3478 3843 c-3 -10 15 -70 39 -133 25 -63 61 -161 81 -218 l37 -103
-24 -20 -23 -19 61 0 60 0 -22 33 c-13 19 -61 134 -107 255 -47 122 -88 222
-91 222 -4 0 -9 -8 -11 -17z"/>
<path d="M8426 3746 c-38 -15 -62 -31 -67 -44 -8 -20 -6 -20 44 4 29 13 57 24
64 24 7 0 17 9 23 20 13 25 10 24 -64 -4z"/>
<path d="M8490 3701 c0 -21 48 -61 73 -61 23 0 44 17 62 50 6 10 1 8 -13 -4
-26 -23 -90 -16 -109 11 -8 10 -13 12 -13 4z"/>
<path d="M2625 3651 c11 -3 35 -14 53 -24 39 -21 88 -25 104 -9 9 9 6 12 -14
12 -14 0 -42 7 -61 15 -20 8 -51 15 -69 14 -25 -1 -28 -3 -13 -8z"/>
<path d="M3386 3572 c-68 -51 -89 -82 -89 -132 0 -73 66 -116 134 -86 l34 14
-37 -5 c-32 -5 -42 -1 -68 25 -52 52 -37 119 42 186 56 47 46 46 -16 -2z"/>
<path d="M6710 3591 c0 -5 29 -13 65 -16 54 -6 63 -10 54 -21 -20 -24 -119
-65 -172 -71 -29 -3 -59 -10 -67 -15 -27 -16 97 1 150 21 55 21 154 81 146 88
-3 3 -29 7 -58 9 -29 2 -68 6 -85 9 -19 3 -33 2 -33 -4z"/>
<path d="M4520 3481 c0 -60 48 -135 117 -182 51 -36 139 -72 157 -66 6 3 2 8
-9 12 -21 8 -137 63 -166 79 -28 16 -79 109 -79 144 0 18 -4 32 -10 32 -5 0
-10 -8 -10 -19z"/>
<path d="M1612 3426 c2 -24 12 -35 48 -53 25 -13 68 -25 95 -28 40 -3 43 -3
15 3 -49 11 -79 29 -123 71 l-39 36 4 -29z"/>
<path d="M2838 3393 c-10 -9 -43 -22 -75 -29 l-58 -12 78 -1 77 -1 0 30 c0 35
0 35 -22 13z"/>
<path d="M8167 3253 c-13 -12 -7 -21 18 -26 25 -4 25 -4 9 14 -19 22 -18 21
-27 12z"/>
<path d="M8125 3126 c16 -25 34 -38 19 -15 -5 8 10 10 52 5 182 -18 191 -18
196 -4 4 9 -6 17 -28 24 -19 6 -31 7 -27 1 3 -5 -6 -7 -23 -4 -16 3 -69 9
-117 12 l-89 7 17 -26z"/>
<path d="M8043 3047 c-8 -17 -8 -24 0 -24 14 0 199 -113 208 -126 4 -5 12 0
18 12 10 18 9 22 -11 30 -30 11 -191 111 -199 123 -3 5 -10 -2 -16 -15z"/>
<path d="M8180 3046 c0 -2 8 -10 18 -17 15 -13 16 -12 3 4 -13 16 -21 21 -21
13z"/>
<path d="M1412 2981 c74 -16 114 -58 124 -133 8 -60 -22 -130 -68 -158 -18
-11 -26 -20 -18 -20 26 0 79 39 100 72 25 41 26 117 4 164 -21 44 -69 73 -130
79 -42 4 -44 3 -12 -4z"/>
<path d="M2723 2983 c9 -2 25 -2 35 0 9 3 1 5 -18 5 -19 0 -27 -2 -17 -5z"/>
<path d="M3693 2983 c9 -2 25 -2 35 0 9 3 1 5 -18 5 -19 0 -27 -2 -17 -5z"/>
<path d="M1224 2958 c13 -19 16 -59 16 -238 0 -179 -3 -219 -16 -238 -15 -22
-15 -22 36 -22 47 0 50 1 36 16 -14 13 -16 50 -16 254 0 181 3 240 13 243 6 3
-10 6 -36 6 -48 1 -48 1 -33 -21z"/>
<path d="M1815 2958 c-4 -16 18 -86 69 -222 82 -214 90 -251 54 -266 -17 -6
-5 -9 47 -9 39 1 64 3 57 6 -19 8 -44 61 -131 293 -45 118 -84 216 -86 218 -2
3 -7 -6 -10 -20z"/>
<path d="M2122 2957 c15 -12 97 -128 182 -257 138 -208 156 -231 156 -201 0
27 -30 79 -147 257 -146 224 -146 224 -182 224 l-36 -1 27 -22z"/>
<path d="M2421 2951 c16 -16 29 -37 29 -46 0 -9 5 -13 10 -10 6 3 10 19 10 35
0 17 7 33 18 39 13 8 4 10 -40 11 l-56 0 29 -29z"/>
<path d="M2584 2958 c13 -19 16 -59 16 -238 0 -179 -3 -219 -16 -238 -15 -22
-14 -22 23 -22 l38 0 0 260 0 260 -38 0 c-37 0 -38 0 -23 -22z"/>
<path d="M3046 2966 c17 -13 19 -31 24 -218 5 -220 8 -230 67 -269 42 -28 45
-23 8 14 -42 42 -49 91 -43 304 3 138 6 157 23 169 17 13 13 14 -40 14 -53 0
-57 -1 -39 -14z"/>
<path d="M3353 2962 c15 -16 17 -47 17 -219 0 -196 0 -201 -25 -237 -29 -43
-20 -47 17 -8 43 44 48 72 48 260 0 145 3 182 16 200 15 22 15 22 -37 22 -50
0 -51 -1 -36 -18z"/>
<path d="M3526 2966 c18 -14 19 -28 19 -246 0 -218 -1 -232 -19 -246 -18 -13
-15 -14 33 -14 49 0 52 2 40 17 -20 23 -27 482 -7 494 8 5 -6 9 -36 9 -46 0
-48 -1 -30 -14z"/>
<path d="M3781 2957 c47 -32 61 -62 56 -126 -3 -46 -9 -59 -36 -83 -37 -33
-17 -38 24 -6 29 23 55 74 55 109 0 55 -66 129 -115 129 -13 0 -8 -7 16 -23z"/>
<path d="M4225 2968 c11 -6 30 -20 43 -31 l22 -20 0 25 c0 21 -6 27 -31 32
-45 9 -57 7 -34 -6z"/>
<path d="M4406 2966 c18 -14 19 -28 19 -246 0 -218 -1 -232 -19 -246 -18 -13
-14 -14 39 -14 53 0 57 1 39 14 -18 14 -19 28 -19 246 0 218 1 232 19 246 18
13 14 14 -39 14 -53 0 -57 -1 -39 -14z"/>
<path d="M4695 2926 c0 -47 -4 -59 -30 -86 -16 -18 -56 -45 -87 -61 -32 -16
-58 -31 -58 -33 0 -10 127 48 158 70 17 14 39 38 47 54 25 48 17 110 -14 110
-13 0 -16 -11 -16 -54z"/>
<path d="M5005 2959 c-7 -27 10 -78 109 -334 42 -106 44 -129 14 -149 -21 -15
-19 -16 46 -16 66 0 68 0 47 18 -18 14 -67 132 -205 497 -2 6 -7 -2 -11 -16z"/>
<path d="M2848 2945 c17 -14 41 -47 54 -73 20 -40 23 -62 23 -152 0 -90 -3
-112 -23 -152 -13 -26 -37 -59 -54 -73 -16 -14 -24 -25 -17 -25 27 0 105 95
120 146 33 116 11 232 -61 306 -25 26 -52 48 -59 48 -7 0 1 -11 17 -25z"/>
<path d="M4004 2936 c-28 -28 -34 -41 -34 -79 0 -66 50 -110 165 -147 64 -20
132 -58 149 -82 22 -31 20 -80 -5 -114 l-21 -29 26 28 c31 34 40 66 32 111 -9
46 -48 78 -138 111 -122 45 -158 65 -174 97 -19 37 -5 88 33 118 14 11 20 20
13 20 -6 0 -27 -15 -46 -34z"/>
<path d="M7878 2833 c-9 -11 -8 -17 3 -27 126 -115 182 -156 194 -146 12 10 6
19 -33 49 -26 21 -71 60 -100 88 -43 40 -55 47 -64 36z"/>
<path d="M7787 2726 c-18 -14 -18 -16 -2 -40 10 -14 18 -26 19 -26 1 0 2 18 1
40 0 22 0 40 0 40 0 -1 -8 -7 -18 -14z"/>
<path d="M1726 2687 c-71 -51 -99 -96 -92 -150 5 -44 27 -73 62 -81 28 -7 100
9 110 25 4 7 -2 7 -16 -1 -30 -16 -86 -4 -105 23 -19 27 -19 90 0 127 8 16 35
43 60 60 25 17 45 33 45 35 0 8 -2 7 -64 -38z"/>
<path d="M3728 2713 c6 -2 18 -2 25 0 6 3 1 5 -13 5 -14 0 -19 -2 -12 -5z"/>
<path d="M4896 2675 c-25 -20 -53 -49 -61 -65 -32 -62 -7 -140 50 -154 29 -7
101 9 111 25 4 8 0 8 -14 0 -46 -25 -104 -3 -123 46 -17 44 0 93 48 140 54 52
51 55 -11 8z"/>
<path d="M4543 2679 c16 -12 56 -63 89 -113 34 -50 66 -94 72 -98 6 -4 27 -7
46 -7 29 0 32 2 14 9 -23 9 -77 73 -112 131 -28 46 -49 65 -97 84 l-40 16 28
-22z"/>
<path d="M3686 2658 c17 -18 48 -60 69 -93 55 -89 73 -105 114 -105 l36 0 -31
19 c-17 10 -51 50 -77 89 -44 67 -79 101 -122 116 -15 6 -13 0 11 -26z"/>
<path d="M1383 2663 c9 -2 25 -2 35 0 9 3 1 5 -18 5 -19 0 -27 -2 -17 -5z"/>
<path d="M7892 2661 c-10 -6 -10 -10 3 -21 13 -11 15 -9 15 9 0 24 0 24 -18
12z"/>
<path d="M2131 2541 c-1 -26 -8 -52 -18 -63 -15 -17 -14 -18 38 -18 44 1 51 3
38 13 -18 14 -38 49 -50 86 -6 22 -7 19 -8 -18z"/>
<path d="M7971 2566 c-18 -10 -20 -14 -8 -19 8 -3 23 3 33 14 20 22 10 24 -25
5z"/>
<path d="M3972 2540 c2 -27 11 -36 49 -57 25 -13 70 -26 100 -28 52 -4 53 -4
12 5 -59 12 -95 33 -132 76 l-32 36 3 -32z"/>
<path d="M7585 2525 c-24 -19 -26 -23 -9 -19 17 4 35 -12 94 -86 47 -58 79
-89 88 -85 7 3 16 5 18 5 3 0 -31 42 -74 93 -44 50 -81 98 -83 104 -3 9 -14 5
-34 -12z"/>
<path d="M2723 2453 c9 -2 25 -2 35 0 9 3 1 5 -18 5 -19 0 -27 -2 -17 -5z"/>
<path d="M7491 2387 c-2 -74 53 -137 118 -137 20 0 43 5 51 10 12 8 9 10 -13
10 -58 0 -127 60 -147 127 -8 27 -8 27 -9 -10z"/>
<path d="M7226 2261 c-3 -5 23 -55 59 -112 36 -57 65 -107 65 -112 0 -4 9 -2
19 5 14 9 16 14 7 23 -6 7 -38 55 -71 108 -58 95 -68 106 -79 88z"/>
<path d="M6994 2132 c-9 -5 -8 -10 1 -19 10 -9 14 -8 18 8 5 20 0 24 -19 11z"/>
<path d="M6805 2049 c-19 -9 -12 -19 83 -112 82 -81 105 -99 112 -87 7 11 -11
35 -75 100 -47 47 -85 91 -85 98 0 14 -7 14 -35 1z"/>
<path d="M4775 1987 c-58 -58 -55 -155 6 -187 21 -12 21 -11 5 11 -24 34 -20
107 8 162 13 26 21 47 19 47 -3 0 -20 -15 -38 -33z"/>
<path d="M4957 1999 c7 -7 -4 -48 -33 -127 -24 -64 -44 -118 -44 -118 0 -1 9
-4 20 -7 14 -4 20 0 20 11 0 28 70 206 85 218 12 9 7 13 -22 22 -22 7 -32 7
-26 1z"/>
<path d="M6298 1903 c-13 -3 -15 -10 -7 -36 14 -49 11 -65 -13 -70 -20 -4 -20
-4 4 -6 24 -1 26 -5 33 -63 8 -72 15 -90 32 -80 8 5 6 39 -8 126 -10 66 -16
123 -13 128 5 8 0 9 -28 1z"/>
<path d="M5244 1885 c-27 -18 -54 -74 -54 -110 0 -47 30 -95 72 -116 22 -11
42 -18 45 -16 2 3 -4 8 -14 11 -56 19 -83 145 -45 211 24 40 24 40 -4 20z"/>
<path d="M5405 1864 c35 -52 37 -126 4 -182 -19 -32 -19 -32 2 -22 74 40 78
176 5 224 -37 23 -38 20 -11 -20z"/>
<path d="M5713 1837 c12 -12 33 -38 48 -56 42 -56 53 -32 12 27 -26 37 -43 52
-59 52 l-23 0 22 -23z"/>
<path d="M5870 1806 c0 -34 -5 -56 -12 -59 -10 -4 -10 -6 0 -6 8 -1 12 -22 12
-71 0 -60 3 -70 18 -70 15 0 17 13 17 130 0 117 -2 130 -17 130 -15 0 -18 -9
-18 -54z"/>
<path d="M6166 1748 c-17 -24 -21 -65 -8 -84 10 -16 48 -34 69 -33 15 0 14 2
-4 9 -30 12 -46 46 -41 91 2 21 3 39 1 39 -1 0 -9 -10 -17 -22z"/>
<path d="M5720 1711 c-14 -27 -13 -76 3 -89 6 -6 26 -13 42 -16 24 -5 26 -5 9
3 -27 12 -43 58 -33 94 8 31 -5 36 -21 8z"/>
</g>
</svg>
