<?xml version="1.0" standalone="no"?>
<!DOCTYPE svg PUBLIC "-//W3C//DTD SVG 20010904//EN"
 "http://www.w3.org/TR/2001/REC-SVG-20010904/DTD/svg10.dtd">
<svg version="1.0" xmlns="http://www.w3.org/2000/svg"
 width="504.000000pt" height="495.000000pt" viewBox="0 0 504.000000 495.000000"
 preserveAspectRatio="xMidYMid meet">

<g transform="translate(0.000000,495.000000) scale(0.100000,-0.100000)"
fill="#000000" stroke="none">
<path d="M2248 4253 c7 -3 16 -2 19 1 4 3 -2 6 -13 5 -11 0 -14 -3 -6 -6z"/>
<path d="M2557 4254 c-1 -1 -49 -3 -107 -5 -58 -1 -110 -6 -116 -11 -6 -4 -45
-3 -88 4 -73 11 -78 11 -98 -10 l-22 -21 37 -16 c20 -8 41 -15 47 -15 20 0
276 -135 360 -189 13 -9 21 -11 17 -4 -8 13 -174 111 -235 137 -72 32 -39 28
65 -8 110 -37 269 -117 440 -220 115 -69 136 -84 250 -176 37 -31 100 -78 138
-105 39 -27 75 -54 80 -60 6 -6 24 -19 40 -29 27 -16 26 -14 -8 18 -21 20 -40
36 -42 36 -3 0 -37 24 -77 52 -63 46 -101 75 -237 184 -45 36 -271 168 -389
229 -63 31 -178 79 -255 106 -141 49 -142 49 -77 43 36 -3 118 -12 184 -20 65
-8 120 -13 123 -11 6 6 -44 14 -167 27 -155 16 -251 33 -242 42 5 5 23 3 41
-3 23 -8 60 -9 120 -3 94 9 286 15 396 14 38 -1 67 1 63 5 -6 6 -235 15 -241
9z m-350 -50 c-3 -3 -12 -4 -19 -1 -8 3 -5 6 6 6 11 1 17 -2 13 -5z"/>
<path d="M2910 4214 c52 -13 115 -26 140 -29 102 -13 250 -72 335 -133 28 -20
106 -76 174 -125 68 -49 142 -98 165 -110 22 -11 67 -41 99 -65 32 -24 60 -42
62 -40 6 6 -92 79 -150 113 -46 27 -154 100 -335 229 -89 63 -220 120 -310
136 -36 6 -107 20 -157 30 -126 27 -140 23 -23 -6z"/>
<path d="M2658 4223 c12 -2 32 -2 45 0 12 2 2 4 -23 4 -25 0 -35 -2 -22 -4z"/>
<path d="M2730 4216 c0 -2 9 -6 20 -9 11 -3 18 -1 14 4 -5 9 -34 13 -34 5z"/>
<path d="M2653 4163 c9 -2 23 -2 30 0 6 3 -1 5 -18 5 -16 0 -22 -2 -12 -5z"/>
<path d="M2916 4132 c-8 -13 61 -23 87 -12 19 7 17 9 -15 9 -20 1 -43 4 -51 7
-8 3 -18 1 -21 -4z"/>
<path d="M1868 4048 c-9 -29 -25 -78 -36 -109 l-21 -56 20 -81 19 -81 -25 -67
c-30 -79 -30 -97 -8 -192 16 -68 16 -74 0 -107 -21 -44 -22 -82 -2 -128 20
-48 19 -57 -5 -57 -13 0 -26 13 -39 38 -11 20 -44 61 -75 90 -32 30 -56 61
-56 73 0 44 -40 96 -123 161 -47 37 -111 100 -143 140 -90 114 -114 137 -186
174 -37 19 -70 34 -73 34 -15 0 -1 -27 33 -64 20 -22 57 -78 80 -123 26 -50
56 -93 77 -109 19 -14 48 -54 67 -91 20 -41 51 -81 81 -107 34 -30 53 -58 67
-97 14 -38 35 -68 69 -99 27 -25 52 -53 55 -64 8 -23 -10 -46 -36 -46 -22 0
-147 84 -247 167 -36 29 -84 60 -108 68 -24 8 -63 22 -88 31 -30 10 -68 39
-115 84 -50 50 -93 81 -155 112 -46 23 -88 39 -92 35 -4 -4 13 -29 38 -55 25
-26 64 -72 87 -103 58 -77 133 -146 218 -201 39 -25 106 -81 150 -124 43 -44
92 -88 108 -100 35 -24 31 -49 -9 -64 -32 -12 -73 6 -125 55 -41 38 -72 48
-162 49 -59 1 -71 5 -106 33 -21 17 -88 55 -148 84 -90 44 -118 53 -164 54
-69 0 -79 -16 -20 -33 87 -26 119 -45 191 -116 61 -58 85 -74 134 -90 102 -31
111 -36 148 -75 20 -21 50 -44 66 -51 32 -13 40 -33 19 -47 -7 -4 -63 -8 -124
-9 -117 -2 -125 -4 -248 -78 -21 -13 -75 -31 -120 -39 -63 -11 -96 -24 -148
-58 -56 -35 -66 -45 -56 -57 19 -22 113 -11 183 23 51 24 75 29 160 32 57 2
116 9 137 18 21 8 62 18 90 21 45 5 58 2 88 -18 32 -22 35 -28 32 -69 -3 -49
-51 -161 -84 -196 -25 -27 -47 -28 -105 -8 -37 13 -48 13 -93 -1 -53 -16 -134
-79 -145 -113 -3 -10 -32 -40 -65 -67 -41 -33 -60 -56 -60 -71 0 -28 14 -29
40 -3 25 25 62 40 96 40 13 0 61 22 105 50 74 46 86 50 141 50 54 0 68 5 125
41 144 91 219 91 238 2 8 -38 -3 -60 -91 -195 -40 -60 -69 -118 -79 -153 -11
-42 -25 -67 -54 -95 -26 -25 -44 -54 -51 -82 -23 -88 -32 -106 -90 -182 -78
-102 -79 -115 -5 -61 17 11 51 33 76 47 45 27 59 47 103 151 11 25 27 43 51
54 31 15 95 94 95 118 0 42 171 185 237 200 84 17 96 -47 33 -168 -38 -72 -41
-84 -46 -180 -8 -159 -8 -159 -75 -223 -94 -91 -125 -145 -144 -244 -30 -166
-36 -186 -65 -229 -33 -49 -38 -71 -15 -71 8 0 54 60 102 133 47 72 99 148
114 167 15 19 36 62 48 95 12 33 37 83 56 110 40 59 72 130 109 242 21 63 35
88 57 104 16 11 36 18 44 15 19 -7 19 -26 0 -149 -12 -83 -22 -111 -66 -192
l-50 -95 -4 -187 c-1 -104 -8 -210 -14 -237 -10 -42 -9 -51 5 -67 21 -24 31
-24 43 0 15 27 40 157 44 227 4 63 23 110 100 237 32 52 80 185 108 296 9 37
28 61 103 135 105 104 129 146 124 215 l-3 47 120 0 c148 -1 185 13 210 78 18
48 11 80 -27 116 -13 13 -16 20 -8 18 25 -9 70 20 70 45 -1 39 -25 59 -74 61
l-45 1 21 23 c27 27 35 28 57 0 10 -12 23 -18 29 -14 19 11 14 40 -8 54 -14 8
-20 23 -20 47 0 28 -5 37 -22 44 -20 7 -15 10 32 20 30 7 65 18 77 27 15 9 23
10 23 3 0 -7 22 -9 68 -5 37 3 58 3 47 -1 -26 -7 -35 -21 -35 -60 0 -22 -6
-36 -21 -44 -16 -8 -20 -18 -17 -40 3 -17 1 -32 -4 -35 -4 -3 -8 -18 -8 -34 0
-45 31 -56 84 -31 74 36 90 21 31 -30 -40 -35 -45 -72 -20 -133 24 -58 55 -71
165 -71 77 0 101 -4 128 -20 130 -77 282 -231 321 -324 28 -67 24 -157 -9
-224 -55 -110 -216 -289 -370 -412 -47 -38 -114 -96 -150 -131 -80 -76 -166
-134 -244 -166 -32 -13 -65 -33 -73 -45 -14 -20 -12 -23 19 -39 71 -38 521
-18 715 32 127 32 414 194 540 304 41 36 114 98 161 138 181 153 268 250 336
373 40 72 127 323 125 360 -1 21 -2 21 -6 4 -2 -11 -25 -83 -49 -160 -74 -227
-167 -363 -364 -525 -57 -47 -137 -117 -179 -155 -102 -94 -214 -167 -401
-260 -100 -50 -285 -110 -230 -75 26 17 -21 12 -54 -5 -18 -10 -59 -15 -115
-16 -57 0 -79 -3 -66 -9 14 -6 -3 -8 -50 -8 -64 1 -66 2 -25 8 41 6 40 7 -25
8 -38 1 -99 -2 -135 -6 -36 -4 -78 -5 -95 -1 -35 7 -7 10 210 29 71 6 132 14
135 17 3 3 -29 2 -70 -2 -41 -3 -129 -10 -195 -15 -66 -5 -132 -12 -147 -16
-21 -5 -28 -3 -28 9 0 10 22 24 58 37 77 29 206 116 268 182 28 29 77 73 110
98 32 25 80 65 106 89 52 47 65 46 21 -2 -16 -17 -22 -27 -15 -23 6 4 45 49
86 99 40 51 99 124 131 162 31 39 68 93 81 120 26 56 76 134 85 135 3 0 20
-28 37 -62 18 -35 32 -57 32 -50 0 7 -14 40 -31 74 l-31 61 20 27 c46 62 124
251 110 266 -3 2 -12 -23 -22 -57 -24 -86 -93 -219 -115 -219 -3 0 -14 13 -24
29 -16 28 -16 36 -2 126 9 54 14 102 12 108 -2 7 -9 -24 -16 -68 -22 -143 -9
-142 -140 -8 -67 69 -147 140 -190 168 l-73 48 33 14 c106 46 319 113 359 113
3 0 6 -55 8 -122 2 -68 6 -125 8 -127 13 -13 15 18 6 108 -15 142 -12 148 82
190 65 30 79 33 88 20 8 -11 9 -10 4 5 -4 12 5 31 29 57 19 22 35 43 35 48 0
23 -14 41 -30 41 -28 0 -51 11 -44 21 3 5 21 9 39 9 30 0 37 -5 49 -35 14 -32
18 -35 43 -29 89 21 223 212 229 326 1 29 0 40 -2 23 -17 -106 -92 -245 -161
-299 -56 -43 -90 -47 -99 -11 -3 14 -14 30 -24 35 -20 11 -77 3 -86 -12 -9
-15 17 -38 42 -38 35 0 31 -39 -6 -75 l-30 -29 -23 22 c-48 45 -115 15 -137
-61 -10 -39 -17 -46 -50 -56 -20 -6 -45 -11 -54 -11 -10 0 -38 -9 -64 -19
-145 -60 -246 -91 -256 -81 -19 19 -9 117 17 174 14 30 55 88 91 130 36 41 71
87 76 101 9 24 11 25 26 11 8 -9 27 -16 40 -16 35 0 99 35 123 67 40 54 77 97
127 150 48 49 54 53 98 53 33 0 57 -7 77 -21 25 -17 38 -20 75 -14 53 8 57 1
10 -19 -26 -11 -35 -21 -38 -42 -2 -21 -13 -33 -43 -48 -30 -16 -40 -27 -40
-46 0 -36 38 -40 60 -6 16 25 18 25 47 10 27 -14 32 -14 54 1 40 26 76 90 80
142 3 47 3 47 -4 8 -9 -47 -50 -124 -74 -139 -13 -8 -27 -7 -50 2 -29 11 -34
10 -59 -14 -15 -14 -32 -23 -38 -20 -22 14 -10 33 32 52 33 15 43 25 45 47 2
19 13 32 35 43 42 22 40 19 28 43 -9 16 -8 28 4 51 9 17 23 34 31 37 19 7 44
-15 45 -41 1 -16 2 -17 6 -4 6 24 -14 58 -36 58 -19 0 -54 -34 -64 -63 -9 -24
-37 -33 -49 -16 -7 10 -8 8 -3 -8 5 -18 2 -23 -13 -23 -11 0 -25 6 -31 14 -10
12 -7 18 16 31 l28 16 -32 -6 c-45 -9 -35 14 17 44 22 12 40 28 40 35 0 18 47
59 54 48 6 -10 66 -35 66 -27 0 1 -17 13 -37 25 -30 17 -41 20 -55 11 -15 -9
-18 -8 -18 8 0 10 -9 29 -21 42 l-21 24 16 -25 c23 -35 20 -77 -7 -104 -21
-21 -29 -23 -74 -16 -62 10 -100 29 -175 86 -54 42 -59 44 -125 44 -72 0 -90
-8 -146 -59 l-28 -26 2 48 3 47 35 -6 c34 -7 35 -6 21 12 -8 10 -23 25 -32 32
-12 9 -18 28 -19 60 l-2 47 -6 -40 c-5 -32 -10 -40 -26 -38 -11 2 -51 7 -90
13 -38 6 -89 9 -112 8 -35 -3 -43 -7 -43 -23 0 -17 -2 -17 -10 -5 -5 8 -10 18
-10 21 0 9 103 45 185 65 83 20 100 28 131 63 32 35 74 120 73 145 0 13 -5 5
-12 -17 -7 -21 -16 -38 -22 -37 -14 1 -55 81 -55 107 0 33 -48 148 -70 168
-29 26 -83 12 -114 -28 -26 -34 -46 -95 -46 -139 0 -18 -17 -48 -51 -88 -69
-83 -80 -116 -89 -250 -5 -77 -14 -132 -27 -166 -24 -60 -102 -189 -150 -246
-18 -22 -33 -46 -33 -54 0 -21 -17 -17 -63 15 -53 37 -75 62 -120 136 -31 51
-38 74 -47 155 -21 187 -60 287 -150 385 -37 39 -76 91 -88 115 -40 80 -121
112 -176 69 -34 -27 -34 -58 5 -221 16 -72 29 -146 27 -166 l-3 -37 -23 25
c-38 41 -82 127 -97 193 -12 48 -15 141 -15 425 0 199 -4 362 -8 362 -5 0 -16
-24 -24 -52z m20 -185 c-3 -109 -2 -282 2 -385 l6 -187 39 -75 c21 -42 54 -90
72 -108 18 -17 33 -42 33 -54 0 -21 -12 -29 -120 -78 -14 -7 -25 -18 -25 -26
0 -16 50 -18 113 -5 31 7 32 7 32 -29 0 -20 -1 -36 -3 -36 -1 0 -28 9 -60 20
-71 25 -117 25 -166 1 -48 -25 -66 -65 -57 -125 7 -48 16 -57 81 -96 24 -14
67 -43 96 -65 29 -22 66 -47 83 -56 33 -18 45 -51 26 -75 -8 -8 -31 -14 -59
-14 -58 0 -113 35 -130 82 -31 82 -43 100 -88 128 -54 34 -109 39 -148 14 -26
-17 -109 -22 -158 -9 -48 13 -74 -26 -40 -60 12 -12 27 -16 55 -12 35 5 38 3
38 -19 0 -20 5 -24 28 -24 32 0 52 -16 52 -41 0 -29 -36 -33 -71 -8 -25 18
-35 20 -54 11 -21 -10 -29 -7 -55 15 -60 50 -78 139 -35 167 33 21 58 20 80
-4 23 -25 61 -26 67 -2 4 14 13 17 40 14 47 -5 69 19 36 42 -12 9 -35 16 -51
16 -20 0 -42 13 -75 45 -39 38 -52 45 -86 45 -79 0 -126 -66 -126 -176 0 -72
17 -120 51 -146 16 -13 42 -33 58 -46 18 -13 36 -43 46 -72 30 -89 71 -119
126 -90 16 9 19 7 19 -9 0 -22 39 -55 115 -96 28 -15 55 -31 60 -35 28 -21
202 -73 317 -94 142 -26 157 -36 158 -95 0 -57 -37 -117 -115 -187 -74 -66
-117 -131 -130 -194 -4 -19 -18 -69 -32 -110 -22 -66 -43 -109 -140 -283 -16
-27 -23 -57 -23 -92 0 -48 -32 -221 -44 -232 -2 -3 -10 -2 -16 2 -10 6 -7 85
7 160 3 17 6 100 8 185 1 148 3 157 28 200 56 96 77 149 86 221 6 41 13 89 17
107 4 20 2 38 -6 47 -38 45 -106 -16 -140 -125 -30 -98 -55 -154 -98 -218 -19
-29 -48 -85 -64 -124 -16 -40 -43 -90 -61 -112 -18 -23 -66 -91 -107 -153 -41
-62 -76 -110 -79 -108 -2 3 8 22 22 43 27 38 45 101 68 241 15 89 52 150 139
229 66 60 68 64 74 215 5 105 6 112 50 199 50 99 54 122 30 157 -15 20 -23 23
-64 19 -37 -4 -62 -16 -121 -60 -90 -67 -106 -85 -153 -171 -29 -52 -46 -72
-77 -88 -31 -15 -45 -31 -60 -67 -37 -89 -54 -116 -83 -131 -15 -9 -44 -26
-62 -38 -19 -12 -34 -20 -34 -16 0 3 19 29 43 57 45 53 69 104 81 169 5 25 21
52 49 81 31 31 46 57 56 97 8 30 36 89 66 134 90 139 108 175 107 213 -1 35
-21 66 -54 83 -28 15 -121 -14 -192 -60 -56 -37 -69 -41 -126 -41 -59 0 -68
-3 -144 -52 -59 -38 -92 -52 -127 -56 -33 -3 -55 -12 -70 -28 -12 -13 -26 -24
-31 -24 -20 0 -4 20 52 65 33 26 62 56 65 66 9 29 67 80 113 100 50 22 84 24
114 8 31 -17 87 -13 110 8 32 28 98 177 98 221 0 42 -13 58 -68 87 -39 19 -87
14 -165 -16 -35 -14 -71 -19 -130 -18 -71 2 -91 -2 -152 -28 -71 -31 -160 -49
-169 -35 -3 5 19 25 49 45 40 27 72 39 122 47 67 11 120 33 217 89 46 27 57
29 150 28 69 0 110 4 131 14 45 21 43 44 -5 69 -22 11 -56 38 -75 59 -27 29
-50 42 -97 56 -90 25 -115 40 -184 110 -64 67 -100 90 -161 104 -32 8 -34 9
-11 10 30 1 135 -35 158 -54 8 -7 26 -16 40 -20 14 -4 54 -27 91 -51 58 -40
71 -44 125 -44 78 0 125 -14 155 -46 29 -32 90 -64 120 -64 30 0 59 28 59 57
0 17 -14 32 -55 58 -30 20 -61 48 -69 63 -17 33 -90 95 -171 146 -71 45 -162
131 -212 201 -20 28 -52 67 -72 89 l-36 38 73 -38 c43 -23 101 -66 141 -104
67 -65 109 -90 188 -110 24 -6 70 -32 105 -60 215 -170 292 -209 318 -159 18
33 4 65 -50 110 -36 31 -53 54 -66 91 -12 36 -32 64 -71 101 -32 30 -67 77
-85 112 -16 33 -45 73 -63 88 -19 16 -54 65 -77 110 -24 45 -59 100 -78 121
l-35 39 71 -37 c49 -25 81 -50 102 -79 63 -87 140 -168 219 -231 74 -59 84
-72 104 -127 16 -44 38 -76 78 -117 31 -32 64 -72 73 -89 20 -38 52 -44 68
-13 8 15 7 27 -3 47 -25 49 -29 89 -13 122 20 38 20 82 1 145 -21 68 -19 95
10 160 29 66 31 89 9 163 -9 30 -14 69 -11 86 5 33 49 166 55 167 2 0 2 -89 0
-197z m1292 -304 c26 -50 40 -113 48 -214 l6 -80 6 55 5 54 18 -27 c18 -27 18
-28 -14 -72 -36 -50 -47 -55 -184 -90 -55 -14 -111 -34 -125 -44 -29 -21 -45
-83 -29 -113 8 -15 6 -29 -9 -61 -11 -23 -25 -57 -30 -76 -11 -33 -11 -33 18
-29 25 4 28 2 19 -14 -14 -25 7 -24 23 2 14 22 33 27 25 7 -3 -8 -2 -19 2 -26
5 -8 13 -1 24 21 l17 33 0 -32 c0 -18 5 -33 10 -33 6 0 10 14 10 30 0 38 15
39 26 3 l8 -28 5 34 c3 19 13 36 21 38 11 4 12 2 2 -4 -9 -7 -6 -15 12 -32 14
-13 26 -18 30 -12 4 5 2 12 -4 16 -19 12 -11 33 11 28 12 -3 24 -1 28 5 3 6
18 13 33 17 24 6 26 4 33 -37 4 -24 13 -65 20 -93 26 -105 -13 -221 -112 -335
-87 -98 -117 -163 -119 -255 l-1 -70 -64 -3 c-122 -6 -153 12 -169 99 -7 37
-5 44 31 85 22 25 39 47 39 49 0 2 -9 9 -20 15 -17 9 -28 7 -54 -9 -44 -28
-72 -27 -80 1 -9 35 12 49 59 38 22 -5 55 -10 74 -10 l34 0 -52 50 c-28 28
-56 50 -61 50 -14 0 -13 53 1 67 6 6 26 9 44 6 27 -4 39 0 60 21 32 32 30 62
-7 89 -22 17 -33 19 -55 11 -40 -14 -39 -32 2 -49 46 -20 36 -39 -17 -32 -22
3 -53 1 -70 -4 -67 -19 -68 27 -4 106 45 54 123 186 143 238 8 23 19 96 23
162 5 66 13 133 20 149 6 17 36 59 65 94 30 35 55 71 56 80 3 94 37 168 82
180 42 12 62 0 87 -49z m-1056 -63 c15 -12 38 -41 51 -66 13 -25 47 -67 75
-95 54 -52 90 -113 121 -204 19 -54 25 -90 13 -78 -4 3 -15 2 -25 -4 -15 -7
-26 -4 -50 13 -28 21 -39 23 -145 20 l-114 -3 0 53 c0 29 -7 82 -15 118 -48
219 -49 229 -31 249 18 20 61 31 81 22 6 -3 23 -14 39 -25z m891 -386 c3 -5 1
-10 -4 -10 -6 0 -11 5 -11 10 0 6 2 10 4 10 3 0 8 -4 11 -10z m35 6 c0 -3 -4
-8 -10 -11 -5 -3 -10 -1 -10 4 0 6 5 11 10 11 6 0 10 -2 10 -4z m131 -24 c26
-2 26 -4 28 -81 2 -74 1 -79 -21 -85 -44 -11 -65 -6 -91 24 -39 43 -83 63
-128 57 -37 -5 -45 2 -49 48 -2 22 150 44 261 37z m84 -50 c-6 -7 -35 18 -35
31 0 5 9 2 20 -8 11 -10 18 -20 15 -23z m-1152 17 c26 0 28 -2 12 -8 -11 -4
-32 -11 -47 -15 -24 -5 -28 -3 -28 15 0 15 4 19 16 15 9 -3 30 -6 47 -7z m67
7 c0 -3 -4 -8 -10 -11 -5 -3 -10 -1 -10 4 0 6 5 11 10 11 6 0 10 -2 10 -4z
m132 -24 c9 -9 9 -15 -1 -24 -12 -11 -13 -10 -7 6 4 13 2 17 -8 13 -8 -3 -17
0 -19 8 -7 16 18 14 35 -3z m-98 -7 c-4 -8 -12 -15 -19 -15 -7 0 -21 -3 -29
-6 -12 -5 -15 -2 -10 10 4 11 13 14 24 11 10 -3 21 -1 25 5 9 15 15 12 9 -5z
m133 -40 c-24 -35 -24 -39 -11 -71 8 -18 14 -44 13 -56 -1 -19 -2 -17 -8 7
-25 102 -78 117 -156 45 -88 -81 -117 -82 -129 -3 l-6 42 42 12 c24 7 48 17
53 22 10 9 0 8 -70 -9 -20 -5 -25 -2 -25 13 0 20 39 27 52 9 4 -6 10 -4 14 7
3 9 10 17 16 17 5 0 6 -4 3 -10 -6 -10 17 -17 85 -24 25 -2 55 -7 67 -11 18
-6 29 0 50 24 36 40 41 32 10 -14z m59 -45 c3 -51 13 -99 24 -120 33 -64 85
-145 95 -149 26 -9 95 -63 95 -75 0 -8 -21 -19 -47 -25 -27 -7 -61 -19 -76
-27 -38 -19 -53 -18 -62 3 -4 12 2 25 19 40 27 23 34 52 14 54 -54 5 -78 -13
-78 -56 0 -47 40 -77 95 -73 38 3 40 1 43 -27 3 -25 -5 -37 -60 -86 -34 -31
-60 -60 -56 -64 4 -4 17 0 30 9 33 23 104 21 118 -3 15 -30 12 -40 -15 -53
-23 -10 -29 -8 -58 20 -29 28 -35 30 -51 19 -15 -11 -17 -17 -7 -35 6 -12 18
-22 26 -22 8 0 31 -14 51 -32 33 -29 36 -35 31 -75 -6 -57 -19 -70 -85 -89
-61 -18 -179 -15 -238 6 -60 21 -94 150 -94 360 0 135 -18 272 -45 349 -16 46
-7 53 34 24 18 -12 28 -14 42 -5 13 9 19 8 22 -1 3 -8 11 -4 24 11 25 27 38
29 21 2 -7 -10 -8 -23 -4 -27 5 -4 11 -2 14 6 3 10 8 7 18 -10 l13 -24 1 25
c0 24 0 24 23 -7 28 -41 43 -43 22 -3 -17 33 -7 42 12 10 15 -24 53 -46 53
-30 0 5 -9 18 -20 27 -24 21 -27 38 -4 25 18 -10 64 -4 64 9 0 5 -11 9 -25 9
-22 0 -25 4 -25 35 0 19 -5 45 -11 59 -10 21 -7 30 17 64 16 22 30 39 31 38 1
-1 5 -40 9 -86z m1048 60 c31 -11 66 -65 66 -101 0 -53 -22 -89 -81 -134 -33
-25 -79 -55 -104 -66 -25 -12 -48 -25 -51 -30 -13 -21 -25 -7 -19 24 3 19 -5
71 -18 127 l-24 95 36 38 c20 22 45 43 56 47 28 12 109 12 139 0z m-1414 -18
c0 -13 -15 -23 -53 -35 -62 -20 -80 -21 -75 -6 3 9 98 54 121 58 4 0 7 -7 7
-17z m987 -3 c28 -11 73 -47 73 -59 0 -4 -34 -10 -75 -14 -42 -4 -83 -10 -92
-13 -14 -5 -15 -1 -9 33 5 21 12 45 18 52 13 15 47 16 85 1z m-113 -46 c-7
-30 -24 -55 -24 -36 0 17 18 63 25 63 3 0 2 -12 -1 -27z m755 -49 c51 -9 52
-11 33 -44 -15 -27 -22 -30 -67 -30 -47 0 -53 -3 -105 -54 -60 -59 -111 -119
-128 -152 -6 -11 -31 -31 -56 -44 -37 -20 -50 -22 -73 -14 -22 8 -28 16 -26
38 3 44 26 69 94 106 146 78 196 137 186 221 l-6 47 56 -34 c31 -19 72 -37 92
-40z m-1365 34 c9 -12 16 -35 16 -50 0 -26 -2 -27 -32 -20 -41 9 -83 8 -128
-3 l-35 -8 55 51 c62 58 98 67 124 30z m-314 -48 l55 -17 22 -86 c32 -125 45
-236 41 -356 -3 -117 10 -206 41 -276 11 -25 17 -45 13 -45 -23 0 -191 36
-267 58 -102 29 -287 123 -310 159 -18 26 -12 43 13 43 24 0 64 29 57 41 -9
13 -52 11 -61 -3 -5 -8 0 -9 14 -6 12 4 22 1 22 -4 0 -6 -12 -8 -29 -5 -20 4
-33 1 -42 -9 -20 -25 -58 -35 -80 -24 -23 13 -49 61 -49 91 0 20 -52 77 -114
124 -54 41 -55 215 -1 262 14 12 41 25 60 29 32 6 40 2 85 -40 35 -33 60 -47
90 -52 54 -9 61 -24 12 -24 -29 0 -43 -6 -54 -21 l-14 -21 -30 25 c-35 30 -66
27 -108 -11 -27 -23 -28 -34 -5 -107 20 -62 79 -106 116 -86 14 7 25 4 43 -10
32 -24 62 -24 85 1 17 18 17 21 1 45 -10 15 -26 25 -41 25 -17 0 -25 6 -27 23
-3 19 -9 22 -51 22 -31 1 -51 6 -57 15 -14 23 16 41 47 29 41 -15 106 -10 147
12 29 15 48 19 74 14 55 -10 118 -59 133 -102 32 -99 93 -148 173 -137 55 8
68 22 64 65 -3 27 -12 37 -68 71 -36 22 -78 52 -95 68 -16 16 -47 36 -67 44
-46 20 -58 41 -58 104 0 54 13 72 65 89 35 12 78 7 155 -17z m858 -222 c29
-29 -3 -89 -48 -88 -8 1 -3 7 13 16 15 8 27 20 27 27 0 19 -21 37 -42 37 -10
0 -18 5 -18 10 0 14 54 12 68 -2z m-388 -29 c0 -11 -40 -48 -52 -49 -12 0 -9
35 4 48 15 15 48 16 48 1z m330 -191 c0 -4 -20 -8 -45 -8 -31 0 -45 4 -45 13
0 8 2 16 5 19 8 7 85 -15 85 -24z m-220 -18 c0 -5 -4 -10 -9 -10 -6 0 -13 5
-16 10 -3 6 1 10 9 10 9 0 16 -4 16 -10z m247 -16 c-3 -3 -12 -4 -19 -1 -8 3
-5 6 6 6 11 1 17 -2 13 -5z m771 -40 c12 -8 22 -19 22 -23 0 -7 -65 -39 -137
-68 -12 -5 -7 22 12 70 14 35 68 46 103 21z m-1093 -82 c-8 -9 -56 29 -49 39
4 6 15 2 30 -12 13 -12 22 -25 19 -27z m935 -526 c0 -3 -4 -8 -10 -11 -5 -3
-10 -1 -10 4 0 6 5 11 10 11 6 0 10 -2 10 -4z m40 -71 c0 -7 -9 -23 -20 -36
l-19 -24 0 60 0 60 19 -24 c11 -13 20 -29 20 -36z m-683 -951 c-3 -3 -12 -4
-19 -1 -8 3 -5 6 6 6 11 1 17 -2 13 -5z"/>
<path d="M3145 4080 c11 -5 29 -8 40 -8 16 0 15 2 -5 8 -34 11 -60 11 -35 0z"/>
<path d="M2640 3956 c0 -2 16 -13 36 -25 19 -12 32 -16 29 -11 -7 11 -65 43
-65 36z"/>
<path d="M2747 3889 c7 -7 15 -10 18 -7 3 3 -2 9 -12 12 -14 6 -15 5 -6 -5z"/>
<path d="M4001 3593 c60 -60 109 -114 109 -120 0 -7 7 -13 16 -13 19 0 -43 70
-152 173 -110 103 -94 79 27 -40z"/>
<path d="M3323 3480 c0 -30 2 -43 4 -27 2 15 2 39 0 55 -2 15 -4 2 -4 -28z"/>
<path d="M3401 3497 c2 -1 15 -11 29 -22 l25 -20 -19 23 c-11 12 -24 22 -29
22 -6 0 -8 -1 -6 -3z"/>
<path d="M4136 3437 c3 -10 9 -15 12 -12 3 3 0 11 -7 18 -10 9 -11 8 -5 -6z"/>
<path d="M3569 3353 c18 -24 35 -43 38 -43 7 0 -34 55 -54 71 -10 8 -3 -5 16
-28z"/>
<path d="M4180 3366 c0 -2 8 -10 18 -17 15 -13 16 -12 3 4 -13 16 -21 21 -21
13z"/>
<path d="M4226 3297 c3 -10 9 -15 12 -12 3 3 0 11 -7 18 -10 9 -11 8 -5 -6z"/>
<path d="M3300 3283 c0 -6 8 -17 18 -24 16 -13 16 -13 2 6 -8 11 -16 22 -17
24 -2 2 -3 0 -3 -6z"/>
<path d="M3645 3243 c34 -51 53 -88 65 -125 6 -21 15 -40 20 -43 13 -8 -19 76
-53 138 -17 31 -36 57 -40 57 -5 0 -1 -12 8 -27z"/>
<path d="M4250 3265 c0 -3 4 -13 9 -23 5 -9 19 -44 32 -77 34 -93 40 -105 33
-65 -8 47 -55 170 -66 170 -4 0 -8 -2 -8 -5z"/>
<path d="M3380 3164 c0 -14 58 -112 71 -120 8 -5 9 -3 3 7 -4 8 -23 38 -41 68
-18 30 -33 51 -33 45z"/>
<path d="M4333 3039 c9 -36 37 -102 42 -97 5 5 -33 110 -42 118 -3 3 -3 -7 0
-21z"/>
<path d="M4381 2904 c0 -11 3 -14 6 -6 3 7 2 16 -1 19 -3 4 -6 -2 -5 -13z"/>
<path d="M4401 2814 c0 -11 3 -14 6 -6 3 7 2 16 -1 19 -3 4 -6 -2 -5 -13z"/>
<path d="M4411 2754 c0 -11 3 -14 6 -6 3 7 2 16 -1 19 -3 4 -6 -2 -5 -13z"/>
<path d="M4437 2630 c3 -25 7 -47 9 -49 8 -9 2 55 -6 74 -6 13 -7 5 -3 -25z"/>
<path d="M4464 2346 c3 -27 6 -69 6 -94 0 -30 3 -43 10 -36 11 11 -3 160 -15
172 -4 4 -5 -15 -1 -42z"/>
<path d="M3644 2190 c0 -58 1 -81 3 -52 2 28 2 76 0 105 -2 28 -3 5 -3 -53z"/>
<path d="M4462 2150 c0 -14 2 -19 5 -12 2 6 2 18 0 25 -3 6 -5 1 -5 -13z"/>
<path d="M3626 2044 c-4 -20 -5 -38 -3 -40 3 -3 8 11 11 32 4 20 5 38 3 40 -3
3 -8 -11 -11 -32z"/>
<path d="M4451 2064 c0 -11 3 -14 6 -6 3 7 2 16 -1 19 -3 4 -6 -2 -5 -13z"/>
<path d="M4441 2014 c0 -11 3 -14 6 -6 3 7 2 16 -1 19 -3 4 -6 -2 -5 -13z"/>
<path d="M4070 1550 c-6 -11 -8 -20 -6 -20 3 0 10 9 16 20 6 11 8 20 6 20 -3
0 -10 -9 -16 -20z"/>
<path d="M3551 1530 c0 -8 4 -22 9 -30 12 -18 12 -2 0 25 -6 13 -9 15 -9 5z"/>
<path d="M4034 1498 l-19 -23 23 19 c12 11 22 21 22 23 0 8 -8 2 -26 -19z"/>
<path d="M3940 1397 c-214 -204 -396 -354 -492 -403 -27 -13 -48 -26 -48 -29
0 -15 109 51 205 123 88 67 430 382 415 382 -3 0 -39 -33 -80 -73z"/>
<path d="M3556 1193 c-9 -26 -62 -81 -98 -99 -26 -13 -46 -15 -102 -9 -39 4
-86 7 -104 6 -45 -2 -110 -34 -171 -86 -79 -68 -107 -85 -136 -85 -25 0 -27 3
-20 28 3 15 40 61 81 102 41 42 74 78 74 82 0 4 -34 -27 -75 -68 -99 -98 -121
-154 -59 -154 28 0 64 22 134 83 25 21 67 50 94 64 47 24 55 25 152 18 109 -7
139 0 192 49 26 23 56 75 49 83 -3 2 -8 -4 -11 -14z"/>
<path d="M3804 1114 c-18 -14 -18 -15 4 -4 12 6 22 13 22 15 0 8 -5 6 -26 -11z"/>
<path d="M3544 1001 c-21 -15 -48 -39 -59 -51 l-20 -24 21 15 c30 20 109 89
102 89 -3 0 -23 -13 -44 -29z"/>
<path d="M3360 950 c-8 -5 -10 -10 -5 -10 6 0 17 5 25 10 8 5 11 10 5 10 -5 0
-17 -5 -25 -10z"/>
<path d="M3278 909 c-21 -11 -38 -22 -38 -24 0 -3 18 4 40 15 22 11 40 23 40
25 0 7 0 7 -42 -16z"/>
<path d="M3434 914 c-18 -14 -18 -15 4 -4 12 6 22 13 22 15 0 8 -5 6 -26 -11z"/>
<path d="M3330 850 c-41 -28 -82 -50 -90 -51 -9 0 -10 -2 -3 -5 13 -6 103 43
148 80 46 39 27 30 -55 -24z"/>
</g>
</svg>
