<?xml version="1.0" standalone="no"?>
<!DOCTYPE svg PUBLIC "-//W3C//DTD SVG 20010904//EN"
 "http://www.w3.org/TR/2001/REC-SVG-20010904/DTD/svg10.dtd">
<svg version="1.0" xmlns="http://www.w3.org/2000/svg"
 width="512.000000pt" height="512.000000pt" viewBox="0 0 512.000000 512.000000"
 preserveAspectRatio="xMidYMid meet">

<g transform="translate(0.000000,512.000000) scale(0.100000,-0.100000)"
fill="#000000" stroke="none">
<path d="M2370 5114 c-19 -2 -77 -9 -128 -15 -666 -77 -1315 -454 -1723 -999
-118 -158 -180 -259 -265 -435 -158 -326 -237 -650 -251 -1020 -32 -911 431
-1779 1207 -2260 52 -32 163 -91 245 -131 375 -181 774 -266 1185 -251 540 20
1036 196 1468 519 122 91 341 304 440 427 461 573 657 1315 537 2031 -12 73
-19 89 -45 113 l-30 27 -1215 0 -1215 0 -32 -29 -33 -29 -3 -499 c-2 -274 0
-513 3 -532 4 -18 17 -44 30 -57 l24 -24 601 0 c330 0 600 -4 600 -8 0 -5 -25
-49 -56 -98 -245 -390 -638 -620 -1099 -641 -666 -30 -1258 439 -1392 1104
-27 132 -24 394 5 530 117 540 534 950 1080 1060 117 24 393 23 507 0 132 -28
243 -67 375 -134 68 -35 136 -63 150 -63 14 0 40 10 56 23 100 75 796 651 813
673 45 57 24 105 -81 187 -130 101 -260 182 -429 266 -355 177 -689 258 -1094
266 -110 2 -216 1 -235 -1z m365 -204 c321 -27 580 -98 870 -240 131 -64 355
-202 355 -218 0 -10 -626 -522 -639 -522 -5 0 -41 16 -79 35 -101 51 -213 89
-348 121 -111 27 -133 28 -334 28 -201 0 -223 -1 -334 -28 -298 -70 -552 -208
-760 -413 -126 -125 -207 -234 -286 -385 l-45 -87 -300 245 c-165 135 -306
251 -314 259 -12 12 -8 24 27 82 452 747 1322 1194 2187 1123z m-1982 -1658
c163 -133 298 -246 301 -250 2 -4 -8 -54 -22 -112 -23 -96 -25 -125 -26 -325
-1 -207 1 -227 27 -335 15 -63 29 -124 32 -135 4 -16 -55 -68 -309 -274 -172
-140 -317 -256 -323 -258 -22 -8 -135 306 -173 482 -107 497 -63 976 135 1448
16 38 16 38 38 20 13 -10 156 -127 320 -261z m4141 -362 c15 -78 27 -317 21
-425 -33 -610 -267 -1145 -687 -1567 -64 -65 -121 -118 -126 -118 -6 0 -150
114 -321 254 l-311 254 63 51 c96 76 245 236 314 338 75 110 172 304 180 360
5 35 1 45 -25 74 l-30 34 -626 3 -626 2 0 385 0 385 1084 0 1084 0 6 -30z
m-3715 -1057 c88 -184 281 -406 463 -536 305 -216 613 -308 983 -294 216 8
398 51 586 138 59 27 74 31 90 21 28 -18 617 -501 624 -512 7 -12 -126 -100
-255 -169 -252 -134 -521 -219 -830 -262 -113 -16 -441 -16 -560 0 -602 81
-1128 363 -1508 806 -98 114 -246 327 -240 344 3 11 609 510 619 511 3 0 15
-21 28 -47z"/>
</g>
</svg>
