<?xml version="1.0" encoding="utf-8"?>
<svg xmlns="http://www.w3.org/2000/svg" xmlns:xlink="http://www.w3.org/1999/xlink" style="margin: auto; background: none; display: block; shape-rendering: auto;" width="200px" height="200px" viewBox="0 0 100 100" preserveAspectRatio="xMidYMid">
<g transform="rotate(0 50 50)">
  <rect x="34" y="10.5" rx="16" ry="19.5" width="32" height="39" fill="#f5f0ba">
    <animate attributeName="opacity" values="1;0" keyTimes="0;1" dur="5.5555555555555545s" begin="-5.092592592592593s" repeatCount="indefinite"></animate>
  </rect>
</g><g transform="rotate(30 50 50)">
  <rect x="34" y="10.5" rx="16" ry="19.5" width="32" height="39" fill="#6eeba7">
    <animate attributeName="opacity" values="1;0" keyTimes="0;1" dur="5.5555555555555545s" begin="-4.62962962962963s" repeatCount="indefinite"></animate>
  </rect>
</g><g transform="rotate(60 50 50)">
  <rect x="34" y="10.5" rx="16" ry="19.5" width="32" height="39" fill="#53eef8">
    <animate attributeName="opacity" values="1;0" keyTimes="0;1" dur="5.5555555555555545s" begin="-4.166666666666666s" repeatCount="indefinite"></animate>
  </rect>
</g><g transform="rotate(90 50 50)">
  <rect x="34" y="10.5" rx="16" ry="19.5" width="32" height="39" fill="#f455db">
    <animate attributeName="opacity" values="1;0" keyTimes="0;1" dur="5.5555555555555545s" begin="-3.7037037037037033s" repeatCount="indefinite"></animate>
  </rect>
</g><g transform="rotate(120 50 50)">
  <rect x="34" y="10.5" rx="16" ry="19.5" width="32" height="39" fill="#f5f0ba">
    <animate attributeName="opacity" values="1;0" keyTimes="0;1" dur="5.5555555555555545s" begin="-3.2407407407407405s" repeatCount="indefinite"></animate>
  </rect>
</g><g transform="rotate(150 50 50)">
  <rect x="34" y="10.5" rx="16" ry="19.5" width="32" height="39" fill="#6eeba7">
    <animate attributeName="opacity" values="1;0" keyTimes="0;1" dur="5.5555555555555545s" begin="-2.7777777777777777s" repeatCount="indefinite"></animate>
  </rect>
</g><g transform="rotate(180 50 50)">
  <rect x="34" y="10.5" rx="16" ry="19.5" width="32" height="39" fill="#53eef8">
    <animate attributeName="opacity" values="1;0" keyTimes="0;1" dur="5.5555555555555545s" begin="-2.314814814814815s" repeatCount="indefinite"></animate>
  </rect>
</g><g transform="rotate(210 50 50)">
  <rect x="34" y="10.5" rx="16" ry="19.5" width="32" height="39" fill="#f455db">
    <animate attributeName="opacity" values="1;0" keyTimes="0;1" dur="5.5555555555555545s" begin="-1.8518518518518516s" repeatCount="indefinite"></animate>
  </rect>
</g><g transform="rotate(240 50 50)">
  <rect x="34" y="10.5" rx="16" ry="19.5" width="32" height="39" fill="#f5f0ba">
    <animate attributeName="opacity" values="1;0" keyTimes="0;1" dur="5.5555555555555545s" begin="-1.3888888888888888s" repeatCount="indefinite"></animate>
  </rect>
</g><g transform="rotate(270 50 50)">
  <rect x="34" y="10.5" rx="16" ry="19.5" width="32" height="39" fill="#6eeba7">
    <animate attributeName="opacity" values="1;0" keyTimes="0;1" dur="5.5555555555555545s" begin="-0.9259259259259258s" repeatCount="indefinite"></animate>
  </rect>
</g><g transform="rotate(300 50 50)">
  <rect x="34" y="10.5" rx="16" ry="19.5" width="32" height="39" fill="#53eef8">
    <animate attributeName="opacity" values="1;0" keyTimes="0;1" dur="5.5555555555555545s" begin="-0.4629629629629629s" repeatCount="indefinite"></animate>
  </rect>
</g><g transform="rotate(330 50 50)">
  <rect x="34" y="10.5" rx="16" ry="19.5" width="32" height="39" fill="#f455db">
    <animate attributeName="opacity" values="1;0" keyTimes="0;1" dur="5.5555555555555545s" begin="0s" repeatCount="indefinite"></animate>
  </rect>
</g>
<!-- [ldio] generated by https://loading.io/ --></svg>