<?xml version="1.0" encoding="utf-8"?>
<svg xmlns="http://www.w3.org/2000/svg" xmlns:xlink="http://www.w3.org/1999/xlink" style="margin: auto; background: none; display: block; shape-rendering: auto;" width="717px" height="717px" viewBox="0 0 100 100" preserveAspectRatio="xMidYMid">
<g transform="rotate(0 50 50)">
  <rect x="35" y="9.5" rx="14.1" ry="13.5" width="30" height="27" fill="#f5f0ba">
    <animate attributeName="opacity" values="1;0" keyTimes="0;1" dur="5.5555555555555545s" begin="-5.246913580246913s" repeatCount="indefinite"></animate>
  </rect>
</g><g transform="rotate(20 50 50)">
  <rect x="35" y="9.5" rx="14.1" ry="13.5" width="30" height="27" fill="#6eeba7">
    <animate attributeName="opacity" values="1;0" keyTimes="0;1" dur="5.5555555555555545s" begin="-4.938271604938271s" repeatCount="indefinite"></animate>
  </rect>
</g><g transform="rotate(40 50 50)">
  <rect x="35" y="9.5" rx="14.1" ry="13.5" width="30" height="27" fill="#53eef8">
    <animate attributeName="opacity" values="1;0" keyTimes="0;1" dur="5.5555555555555545s" begin="-4.62962962962963s" repeatCount="indefinite"></animate>
  </rect>
</g><g transform="rotate(60 50 50)">
  <rect x="35" y="9.5" rx="14.1" ry="13.5" width="30" height="27" fill="#f455db">
    <animate attributeName="opacity" values="1;0" keyTimes="0;1" dur="5.5555555555555545s" begin="-4.320987654320987s" repeatCount="indefinite"></animate>
  </rect>
</g><g transform="rotate(80 50 50)">
  <rect x="35" y="9.5" rx="14.1" ry="13.5" width="30" height="27" fill="#f5f0ba">
    <animate attributeName="opacity" values="1;0" keyTimes="0;1" dur="5.5555555555555545s" begin="-4.012345679012346s" repeatCount="indefinite"></animate>
  </rect>
</g><g transform="rotate(100 50 50)">
  <rect x="35" y="9.5" rx="14.1" ry="13.5" width="30" height="27" fill="#6eeba7">
    <animate attributeName="opacity" values="1;0" keyTimes="0;1" dur="5.5555555555555545s" begin="-3.7037037037037033s" repeatCount="indefinite"></animate>
  </rect>
</g><g transform="rotate(120 50 50)">
  <rect x="35" y="9.5" rx="14.1" ry="13.5" width="30" height="27" fill="#53eef8">
    <animate attributeName="opacity" values="1;0" keyTimes="0;1" dur="5.5555555555555545s" begin="-3.3950617283950617s" repeatCount="indefinite"></animate>
  </rect>
</g><g transform="rotate(140 50 50)">
  <rect x="35" y="9.5" rx="14.1" ry="13.5" width="30" height="27" fill="#f455db">
    <animate attributeName="opacity" values="1;0" keyTimes="0;1" dur="5.5555555555555545s" begin="-3.0864197530864197s" repeatCount="indefinite"></animate>
  </rect>
</g><g transform="rotate(160 50 50)">
  <rect x="35" y="9.5" rx="14.1" ry="13.5" width="30" height="27" fill="#f5f0ba">
    <animate attributeName="opacity" values="1;0" keyTimes="0;1" dur="5.5555555555555545s" begin="-2.7777777777777777s" repeatCount="indefinite"></animate>
  </rect>
</g><g transform="rotate(180 50 50)">
  <rect x="35" y="9.5" rx="14.1" ry="13.5" width="30" height="27" fill="#6eeba7">
    <animate attributeName="opacity" values="1;0" keyTimes="0;1" dur="5.5555555555555545s" begin="-2.4691358024691357s" repeatCount="indefinite"></animate>
  </rect>
</g><g transform="rotate(200 50 50)">
  <rect x="35" y="9.5" rx="14.1" ry="13.5" width="30" height="27" fill="#53eef8">
    <animate attributeName="opacity" values="1;0" keyTimes="0;1" dur="5.5555555555555545s" begin="-2.1604938271604937s" repeatCount="indefinite"></animate>
  </rect>
</g><g transform="rotate(220 50 50)">
  <rect x="35" y="9.5" rx="14.1" ry="13.5" width="30" height="27" fill="#f455db">
    <animate attributeName="opacity" values="1;0" keyTimes="0;1" dur="5.5555555555555545s" begin="-1.8518518518518516s" repeatCount="indefinite"></animate>
  </rect>
</g><g transform="rotate(240 50 50)">
  <rect x="35" y="9.5" rx="14.1" ry="13.5" width="30" height="27" fill="#f5f0ba">
    <animate attributeName="opacity" values="1;0" keyTimes="0;1" dur="5.5555555555555545s" begin="-1.5432098765432098s" repeatCount="indefinite"></animate>
  </rect>
</g><g transform="rotate(260 50 50)">
  <rect x="35" y="9.5" rx="14.1" ry="13.5" width="30" height="27" fill="#6eeba7">
    <animate attributeName="opacity" values="1;0" keyTimes="0;1" dur="5.5555555555555545s" begin="-1.2345679012345678s" repeatCount="indefinite"></animate>
  </rect>
</g><g transform="rotate(280 50 50)">
  <rect x="35" y="9.5" rx="14.1" ry="13.5" width="30" height="27" fill="#53eef8">
    <animate attributeName="opacity" values="1;0" keyTimes="0;1" dur="5.5555555555555545s" begin="-0.9259259259259258s" repeatCount="indefinite"></animate>
  </rect>
</g><g transform="rotate(300 50 50)">
  <rect x="35" y="9.5" rx="14.1" ry="13.5" width="30" height="27" fill="#f455db">
    <animate attributeName="opacity" values="1;0" keyTimes="0;1" dur="5.5555555555555545s" begin="-0.6172839506172839s" repeatCount="indefinite"></animate>
  </rect>
</g><g transform="rotate(320 50 50)">
  <rect x="35" y="9.5" rx="14.1" ry="13.5" width="30" height="27" fill="#f5f0ba">
    <animate attributeName="opacity" values="1;0" keyTimes="0;1" dur="5.5555555555555545s" begin="-0.30864197530864196s" repeatCount="indefinite"></animate>
  </rect>
</g><g transform="rotate(340 50 50)">
  <rect x="35" y="9.5" rx="14.1" ry="13.5" width="30" height="27" fill="#6eeba7">
    <animate attributeName="opacity" values="1;0" keyTimes="0;1" dur="5.5555555555555545s" begin="0s" repeatCount="indefinite"></animate>
  </rect>
</g>
<!-- [ldio] generated by https://loading.io/ --></svg>