<?xml version="1.0" standalone="no"?>
<!DOCTYPE svg PUBLIC "-//W3C//DTD SVG 20010904//EN"
 "http://www.w3.org/TR/2001/REC-SVG-20010904/DTD/svg10.dtd">
<svg version="1.0" xmlns="http://www.w3.org/2000/svg"
 width="512.000000pt" height="512.000000pt" viewBox="0 0 512.000000 512.000000"
 preserveAspectRatio="xMidYMid meet">

<g transform="translate(0.000000,512.000000) scale(0.100000,-0.100000)"
fill="#000000" stroke="none">
<path d="M2297 4485 c-169 -23 -427 -96 -494 -140 -32 -22 -31 -69 2 -91 25
-16 31 -15 163 29 203 68 322 89 542 94 197 6 335 -8 492 -48 651 -165 1162
-676 1327 -1327 40 -158 54 -295 48 -492 -5 -194 -20 -298 -63 -448 -78 -272
-214 -515 -408 -729 -85 -94 -97 -129 -51 -159 35 -23 55 -12 132 69 274 289
448 666 504 1092 15 114 6 441 -14 550 -132 701 -593 1254 -1249 1499 -275
102 -633 141 -931 101z"/>
<path d="M1519 4201 c-42 -26 -78 -57 -81 -68 -8 -29 8 -62 36 -75 22 -9 33
-6 82 23 70 42 124 91 124 113 0 23 -36 56 -62 56 -13 0 -57 -22 -99 -49z"/>
<path d="M1153 3897 c-268 -281 -435 -611 -510 -1012 -20 -110 -28 -417 -14
-541 35 -294 135 -580 286 -819 l58 -90 -102 -305 c-55 -168 -101 -312 -101
-321 0 -22 32 -49 59 -49 12 0 147 49 301 110 154 60 284 110 289 110 4 0 44
-23 87 -52 238 -157 536 -263 838 -299 129 -15 433 -6 546 16 287 56 524 151
748 299 166 111 201 156 154 199 -30 28 -56 20 -138 -41 -222 -164 -462 -272
-745 -334 -92 -20 -133 -22 -344 -23 -212 0 -253 3 -353 23 -235 47 -477 148
-667 277 -53 36 -104 65 -113 65 -9 0 -125 -43 -257 -95 -131 -52 -240 -93
-242 -91 -1 1 35 117 82 256 47 140 85 261 85 270 0 8 -28 56 -61 105 -151
225 -251 498 -290 790 -17 130 -6 432 20 559 72 351 228 652 469 907 56 60 92
107 92 119 0 40 -19 60 -54 60 -29 0 -45 -12 -123 -93z"/>
<path d="M1718 3637 c-130 -45 -225 -129 -284 -252 -75 -157 -73 -340 8 -580
153 -456 529 -851 1068 -1124 158 -81 380 -170 500 -202 120 -32 269 -32 363
0 167 57 292 217 342 439 21 92 13 116 -59 171 -143 110 -422 215 -521 197
-47 -9 -98 -56 -147 -132 -65 -105 -123 -144 -190 -130 -40 8 -135 57 -210
107 -204 139 -583 511 -604 593 -9 39 22 94 106 186 103 113 114 139 94 216
-31 119 -152 343 -247 457 -69 83 -107 92 -219 54z m160 -172 c59 -79 177
-305 187 -359 7 -33 3 -40 -73 -125 -103 -114 -126 -157 -126 -237 -1 -58 2
-67 47 -132 140 -205 535 -555 746 -660 86 -43 100 -47 165 -47 110 1 174 45
267 186 l53 81 49 -6 c91 -12 276 -90 374 -157 l42 -29 -20 -71 c-60 -217
-199 -339 -387 -339 -123 0 -341 73 -607 205 -495 243 -837 576 -1004 976 -65
156 -86 246 -86 384 0 111 2 125 28 180 34 72 66 116 112 151 40 30 143 75
165 71 8 -1 39 -34 68 -72z"/>
</g>
</svg>
